<svg width="65" height="65" viewBox="0 0 65 65" fill="none" xmlns="http://www.w3.org/2000/svg">
<path fill-rule="evenodd" clip-rule="evenodd" d="M6.09375 60.9375H30.4688V31.4844H32.5V61.9531C32.5 62.2225 32.393 62.4808 32.2025 62.6713C32.0121 62.8617 31.7537 62.9688 31.4844 62.9688H5.07812C4.80876 62.9688 4.55044 62.8617 4.35997 62.6713C4.1695 62.4808 4.0625 62.2225 4.0625 61.9531V34.5312H6.09375V60.9375ZM4.0625 24.375V21.3281C4.0625 21.0588 4.1695 20.8004 4.35997 20.61C4.55044 20.4195 4.80876 20.3125 5.07812 20.3125H26.4062V22.3438H6.09375V24.375H4.0625Z" fill="#3561B6"/>
<path d="M2.32883 30.7663C2.18683 30.9084 2.09014 31.0893 2.05097 31.2863C2.0118 31.4833 2.03191 31.6875 2.10876 31.873C2.18562 32.0586 2.31576 32.2172 2.48274 32.3288C2.64972 32.4404 2.84603 32.5 3.04688 32.5H8.125V30.4688H5.49859L7.82742 28.1399C7.96942 27.9979 8.06611 27.8169 8.10528 27.62C8.14445 27.423 8.12434 27.2188 8.04749 27.0332C7.97063 26.8477 7.84049 26.6891 7.67351 26.5775C7.50653 26.4659 7.31021 26.4063 7.10938 26.4062H2.03125V28.4375H4.65766L2.32883 30.7663Z" fill="#79A1D5"/>
<path fill-rule="evenodd" clip-rule="evenodd" d="M18.1955 33.6457C17.7279 33.9582 16.6134 34.125 16.0509 34.125C15.6775 34.125 15.8724 34.0514 15.5274 33.9085C15.1823 33.7656 14.8688 33.5562 14.6048 33.2921C14.3407 33.028 14.1312 32.7145 13.9883 32.3695C13.8454 32.0245 13.7719 31.6547 13.7719 31.2812C13.7719 30.7188 13.9386 30.169 14.2511 29.7013C14.5636 29.2337 15.0077 28.8692 15.5274 28.654C16.047 28.4387 16.6188 28.3824 17.1704 28.4921C17.722 28.6019 18.2287 28.8727 18.6265 29.2704C19.0242 29.6681 19.295 30.1748 19.4047 30.7265C19.5145 31.2781 19.4581 31.8499 19.2429 32.3695C19.0277 32.8891 18.6632 33.3333 18.1955 33.6457ZM36.5625 2.03125H60.9375C61.4762 2.03125 61.9929 2.24526 62.3738 2.62619C62.7547 3.00712 62.9687 3.52378 62.9687 4.0625V27.4219C62.9687 27.9606 62.7547 28.4773 62.3738 28.8582C61.9929 29.2391 61.4762 29.4531 60.9375 29.4531H36.5625C36.0238 29.4531 35.5071 29.2391 35.1262 28.8582C34.7452 28.4773 34.5312 27.9606 34.5312 27.4219V24.375H29.4531L33.6933 20.9828L34.5312 20.3125V4.0625C34.5312 3.52378 34.7452 3.00712 35.1262 2.62619C35.5071 2.24526 36.0238 2.03125 36.5625 2.03125ZM41.8945 13.2031H43.418C43.7194 13.1774 44.0192 13.2685 44.2555 13.4575C44.4918 13.6465 44.6464 13.919 44.6875 14.2188C44.6464 14.5185 44.4918 14.791 44.2555 14.98C44.0192 15.169 43.7194 15.2601 43.418 15.2344H41.8945C41.5931 15.2601 41.2932 15.169 41.057 14.98C40.8207 14.791 40.6661 14.5185 40.625 14.2188H38.5937C38.625 15.0147 38.9567 15.7692 39.5221 16.3302C40.0875 16.8913 40.8445 17.2172 41.6406 17.2423V18.2812H43.6719V17.2423C44.468 17.2172 45.225 16.8913 45.7904 16.3302C46.3558 15.7692 46.6875 15.0147 46.7187 14.2188C46.6828 13.3778 46.3155 12.5852 45.697 12.0143C45.0785 11.4434 44.2591 11.1405 43.418 11.1719H41.8945C41.5931 11.1976 41.2932 11.1065 41.057 10.9175C40.8207 10.7285 40.6661 10.456 40.625 10.1562C40.6661 9.8565 40.8207 9.58397 41.057 9.39496C41.2932 9.20596 41.5931 9.11491 41.8945 9.14062H43.418C43.7194 9.11491 44.0192 9.20596 44.2555 9.39496C44.4918 9.58397 44.6464 9.8565 44.6875 10.1562H46.7187C46.6875 9.36034 46.3558 8.60583 45.7904 8.04478C45.225 7.48372 44.468 7.15782 43.6719 7.13273V6.09375H41.6406V7.13273C40.8445 7.15782 40.0875 7.48372 39.5221 8.04478C38.9567 8.60583 38.625 9.36034 38.5937 10.1562C38.6297 10.9972 38.997 11.7898 39.6155 12.3607C40.234 12.9316 41.0534 13.2345 41.8945 13.2031ZM55.8594 9.56109L57.1726 10.8743L58.6087 9.4382L55.5618 6.39133C55.3713 6.20093 55.113 6.09397 54.8437 6.09397C54.5744 6.09397 54.3162 6.20093 54.1257 6.39133L51.0788 9.4382L52.5149 10.8743L53.8281 9.56109V12.1875C53.8246 15.1494 52.6465 17.989 50.5521 20.0833C48.4577 22.1777 45.6181 23.3559 42.6562 23.3594H38.5937V25.3906H42.6562C46.1567 25.3866 49.5126 23.9943 51.9878 21.5191C54.463 19.0439 55.8553 15.6879 55.8594 12.1875V9.56109Z" fill="#3561B6"/>
<path d="M11.4898 37.5375L11.4644 46.6294C11.4633 47.0779 11.5506 47.5221 11.7214 47.9368C11.8922 48.3515 12.143 48.7285 12.4596 49.0462C12.7761 49.3639 13.1522 49.6161 13.5663 49.7883C13.9803 49.9605 14.4243 50.0495 14.8728 50.05H19.4147L19.9956 56.875H22.8394L22.8648 48.9125V47.775C22.8648 47.1716 22.6251 46.593 22.1984 46.1663C21.7718 45.7397 21.1931 45.5 20.5898 45.5H18.3148L18.2812 38.675L23.9687 34.125L23.4041 28.4375H20.5603V32.9875L18.2853 34.125H16.0509H14.9023C13.9975 34.1258 13.1299 34.4856 12.4901 35.1254C11.8504 35.7652 11.4906 36.6327 11.4898 37.5375Z" fill="#B4CBEA"/>
</svg>
