<svg width="100" height="100" viewBox="0 0 100 100" fill="none" xmlns="http://www.w3.org/2000/svg">
<path d="M42.9672 34.375H35.1547V37.5H42.9672V34.375Z" fill="#B4CBEA"/>
<path d="M42.9672 37.5H35.1547L42.9672 34.375V37.5Z" fill="#79A1D5"/>
<path d="M63.2797 34.375H55.4672V37.5H63.2797V34.375Z" fill="#B4CBEA"/>
<path d="M63.2797 37.5H55.4672L63.2797 34.375V37.5Z" fill="#79A1D5"/>
<path d="M12.6953 41.9172L9.7594 41.3969L8.65002 47.6562L21.0969 47.6469L21.0156 43.3906L12.6953 41.9172Z" fill="#DBE7F6"/>
<path d="M8.65002 47.6562L21.0969 47.6469L21.0156 43.3906L8.65002 47.6562Z" fill="#B4CBEA"/>
<path d="M8.65002 63.2719L9.7594 69.5312L20.8938 67.5594V63.2719H8.65002Z" fill="#DBE7F6"/>
<path d="M9.7594 69.5312L20.8938 67.5594V63.2719L9.7594 69.5312Z" fill="#B4CBEA"/>
<path d="M21.0969 47.6469H5.47192V63.2719H21.0969" fill="#DBE7F6"/>
<path d="M21.0969 47.6469L5.47192 63.2719H21.0969" fill="#B4CBEA"/>
<path d="M75.7797 76.5625H24.2172C22.4906 76.5625 21.0922 75.1641 21.0922 73.4375V40.625C21.0922 38.8984 22.4906 37.5 24.2172 37.5H75.7797C77.5062 37.5 78.9047 38.8984 78.9047 40.625V73.4375C78.9047 75.1641 77.5062 76.5625 75.7797 76.5625Z" fill="#DBE7F6"/>
<path d="M77.7922 38.2516L22.2047 75.811C22.75 76.2735 23.4469 76.5625 24.2172 76.5625H75.7797C77.5063 76.5625 78.9047 75.1641 78.9047 73.4375V40.625C78.9047 39.6703 78.4672 38.825 77.7922 38.2516Z" fill="#B4CBEA"/>
<path d="M66.4047 43.75H33.7359C33.7359 47.2016 30.9375 50 27.4859 50C27.4375 50 27.3906 49.9859 27.3422 49.9859V64.0781C27.3906 64.0766 27.4359 64.0625 27.4859 64.0625C30.9375 64.0625 33.7359 66.8609 33.7359 70.3125H66.4047C66.4047 66.8609 69.2031 64.0625 72.6547 64.0625V50C69.2031 50 66.4047 47.2016 66.4047 43.75Z" fill="#F4F8F8"/>
<path d="M33.7359 70.3125H66.4047C66.4047 66.861 69.2031 64.0625 72.6547 64.0625V50C69.8922 50 67.5765 48.1969 66.75 45.7125L33.3656 68.2703C33.589 68.9125 33.7359 69.5922 33.7359 70.3125Z" fill="#DBE7F6"/>
<path d="M49.9984 63.2812C53.4502 63.2812 56.2484 60.483 56.2484 57.0312C56.2484 53.5795 53.4502 50.7812 49.9984 50.7812C46.5466 50.7812 43.7484 53.5795 43.7484 57.0312C43.7484 60.483 46.5466 63.2812 49.9984 63.2812Z" fill="#DBE7F6"/>
<path d="M49.9984 63.2813C53.45 63.2813 56.2484 60.4828 56.2484 57.0313C56.2484 55.7344 55.8531 54.5313 55.1765 53.5328L44.8187 60.5313C45.9437 62.1906 47.8437 63.2813 49.9984 63.2813Z" fill="#B4CBEA"/>
<path d="M78.9031 63.2766H94.5281V47.6516H78.9031" fill="#B4CBEA"/>
<path d="M89.1578 56.9938C90.0208 56.9938 90.7203 56.2942 90.7203 55.4313C90.7203 54.5683 90.0208 53.8688 89.1578 53.8688C88.2949 53.8688 87.5953 54.5683 87.5953 55.4313C87.5953 56.2942 88.2949 56.9938 89.1578 56.9938Z" fill="#79A1D5"/>
<path d="M10.8422 57.0547C11.7051 57.0547 12.4047 56.3551 12.4047 55.4922C12.4047 54.6292 11.7051 53.9297 10.8422 53.9297C9.97922 53.9297 9.27966 54.6292 9.27966 55.4922C9.27966 56.3551 9.97922 57.0547 10.8422 57.0547Z" fill="#79A1D5"/>
<path d="M91.5468 63.2766C91.4593 63.0313 91.4031 62.7704 91.4031 62.4954C91.4031 61.2016 92.4531 60.1516 93.7468 60.1516C94.0218 60.1516 94.2828 60.2079 94.5281 60.2954V63.2766H91.5468ZM94.5281 50.6329C94.2828 50.7204 94.0218 50.7766 93.7468 50.7766C92.4531 50.7766 91.4031 49.7266 91.4031 48.4329C91.4031 48.1579 91.4593 47.8969 91.5468 47.6516H94.5281V50.6329Z" fill="#79A1D5"/>
<path d="M91.3937 47.661L90.8046 44.3375L90.2843 41.4016L87.3499 41.9219L78.9046 43.4172L78.9031 47.6516L91.3937 47.661Z" fill="#B4CBEA"/>
<path d="M91.3937 63.2766H78.9031L78.9046 67.5204L90.2843 69.536L90.8046 66.6L91.3937 63.2766Z" fill="#B4CBEA"/>
<path d="M90.8047 44.3375C90.5782 44.4656 90.3313 44.5671 90.061 44.6156C88.786 44.8406 87.5703 43.9906 87.3438 42.7171C87.2953 42.4453 87.3063 42.1796 87.3485 41.9234L90.2844 41.4031L90.8047 44.3375ZM90.8047 66.6C90.5782 66.4718 90.3313 66.3703 90.061 66.3218C88.786 66.0968 87.5703 66.9468 87.3438 68.2203C87.2953 68.4921 87.3063 68.7578 87.3485 69.014L90.2844 69.5343L90.8047 66.6Z" fill="#79A1D5"/>
<path d="M9.23911 66.5953C9.46567 66.4672 9.71255 66.3656 9.98286 66.3172C11.2579 66.0922 12.4735 66.9422 12.7 68.2156C12.7485 68.4875 12.7375 68.7531 12.6954 69.0094L9.75942 69.5312L9.23911 66.5953ZM8.45317 47.6469C8.54067 47.8922 8.59692 48.1531 8.59692 48.4281C8.59692 49.7219 7.54692 50.7719 6.25317 50.7719C5.97817 50.7719 5.71724 50.7156 5.47192 50.6281V47.6469H8.45317ZM5.47192 60.2906C5.71724 60.2031 5.97817 60.1469 6.25317 60.1469C7.54692 60.1469 8.59692 61.1969 8.59692 62.4906C8.59692 62.7656 8.54067 63.0265 8.45317 63.2719H5.47192V60.2906Z" fill="#B4CBEA"/>
<path d="M7.91099 60.8328L5.47192 63.2719H8.45317C8.54067 63.0266 8.59692 62.7656 8.59692 62.4906C8.59692 61.8438 8.33442 61.2578 7.91099 60.8328ZM58.5922 23.4375H39.8422C38.1157 23.4375 36.7172 24.8359 36.7172 26.5625V34.375H41.4047V28.125H57.0297V34.375H61.7172V26.5625C61.7172 24.8359 60.3188 23.4375 58.5922 23.4375Z" fill="#79A1D5"/>
<path d="M81.8172 56.2454H80.4781C79.186 56.2454 78.1344 55.1938 78.1344 53.9016C78.1344 52.6094 79.186 51.5579 80.4781 51.5579H83.6031C84.0344 51.5579 84.3844 51.9079 84.3844 52.3391C84.3844 52.7704 84.0344 53.1204 83.6031 53.1204H80.4781C80.0469 53.1204 79.6969 53.4704 79.6969 53.9016C79.6969 54.3329 80.0469 54.6829 80.4781 54.6829H81.8172C82.2485 54.6829 82.5985 55.0329 82.5985 55.4641C82.5985 55.8954 82.2485 56.2454 81.8172 56.2454Z" fill="#3561B6"/>
<path d="M82.0391 59.3704H78.9141C78.4828 59.3704 78.1328 59.0204 78.1328 58.5891C78.1328 58.1579 78.4828 57.8079 78.9141 57.8079H82.0391C82.4703 57.8079 82.8203 57.4579 82.8203 57.0266C82.8203 56.5954 82.4703 56.2454 82.0391 56.2454H80.7C80.2687 56.2454 79.9187 55.8954 79.9187 55.4641C79.9187 55.0329 80.2687 54.6829 80.7 54.6829H82.0391C83.3313 54.6829 84.3828 55.7344 84.3828 57.0266C84.3828 58.3188 83.3328 59.3704 82.0391 59.3704Z" fill="#3561B6"/>
<path d="M81.2578 60.9329C80.8266 60.9329 80.4766 60.5829 80.4766 60.1516V50.7766C80.4766 50.3454 80.8266 49.9954 81.2578 49.9954C81.6891 49.9954 82.0391 50.3454 82.0391 50.7766V60.1516C82.0391 60.5829 81.6906 60.9329 81.2578 60.9329Z" fill="#3561B6"/>
<path d="M94.5281 64.0579H78.9031C78.4718 64.0579 78.1218 63.7079 78.1218 63.2766C78.1218 62.8454 78.4718 62.4954 78.9031 62.4954H93.7468V48.4329H78.9031C78.4718 48.4329 78.1218 48.0829 78.1218 47.6516C78.1218 47.2204 78.4718 46.8704 78.9031 46.8704H94.5281C94.9593 46.8704 95.3093 47.2204 95.3093 47.6516V63.2766C95.3093 63.7079 94.9593 64.0579 94.5281 64.0579Z" fill="#3561B6"/>
<path d="M89.1578 57.7751C87.8656 57.7751 86.8141 56.7235 86.8141 55.4313C86.8141 54.1391 87.8656 53.0876 89.1578 53.0876C90.45 53.0876 91.5016 54.1391 91.5016 55.4313C91.5016 56.7235 90.45 57.7751 89.1578 57.7751ZM89.1578 54.6501C88.7266 54.6501 88.3766 55.0001 88.3766 55.4313C88.3766 55.8626 88.7266 56.2126 89.1578 56.2126C89.5891 56.2126 89.9391 55.8626 89.9391 55.4313C89.9391 55.0001 89.5875 54.6501 89.1578 54.6501ZM94.5281 64.0579H91.5469C91.2156 64.0579 90.9203 63.8501 90.811 63.5376C90.6844 63.1797 90.6219 62.8391 90.6219 62.4954C90.6219 60.4297 92.6703 58.7954 94.7906 59.5594C95.1016 59.6704 95.3094 59.9641 95.3094 60.2954V63.2766C95.3094 63.7079 94.9594 64.0579 94.5281 64.0579ZM92.1844 62.4954H93.7469V60.9329C92.886 60.9329 92.1844 61.6344 92.1844 62.4954ZM93.7469 51.5579C92.0235 51.5579 90.6219 50.1563 90.6219 48.4329C90.6219 48.0891 90.6844 47.7485 90.811 47.3907C90.9203 47.0782 91.2156 46.8704 91.5469 46.8704H94.5281C94.9594 46.8704 95.3094 47.2204 95.3094 47.6516V50.6329C95.3094 50.9641 95.1016 51.2594 94.7891 51.3688C94.4313 51.4969 94.0906 51.5579 93.7469 51.5579ZM94.5281 50.6329H94.5438H94.5281ZM92.1844 48.4329C92.1844 49.2938 92.886 49.9954 93.7469 49.9954V48.4329H92.1844Z" fill="#3561B6"/>
<path d="M91.3937 48.4422C91.0219 48.4422 90.6922 48.1765 90.625 47.7968L89.6516 42.3062L79.0406 44.1859C78.6094 44.2687 78.2109 43.9781 78.1344 43.5531C78.0594 43.1281 78.3422 42.7218 78.7672 42.6468L90.1484 40.6312C90.3562 40.5937 90.5641 40.6422 90.7328 40.7609C90.9016 40.8797 91.0187 41.0609 91.0547 41.264L92.1625 47.5234C92.2375 47.9484 91.9547 48.3547 91.5297 48.4297C91.4844 48.4375 91.4391 48.4422 91.3937 48.4422Z" fill="#3561B6"/>
<path d="M89.65 45.4328C88.164 45.4328 86.8422 44.3657 86.575 42.8532C86.514 42.5141 86.5156 42.1672 86.5781 41.7938C86.6328 41.4672 86.8859 41.2094 87.2125 41.1532L90.1484 40.6328C90.3531 40.5969 90.5625 40.6422 90.7328 40.7625C90.9015 40.8813 91.0187 41.0625 91.0547 41.2672L91.575 44.2032C91.6328 44.5282 91.4797 44.8547 91.1922 45.0172C90.864 45.2047 90.539 45.325 90.1984 45.3844C90.014 45.4172 89.8312 45.4328 89.65 45.4328ZM88.114 42.5797C88.264 43.4282 89.075 43.9891 89.925 43.8469L89.6531 42.3078L88.114 42.5797ZM90.2859 70.3172C90.2406 70.3172 90.1953 70.3141 90.15 70.3047L78.7687 68.2891C78.3453 68.2141 78.0609 67.8078 78.1359 67.3828C78.2109 66.9594 78.6125 66.6735 79.0422 66.75L89.6531 68.6297L90.625 63.1407C90.7 62.7172 91.0937 62.425 91.5312 62.5078C91.9547 62.5828 92.239 62.9891 92.164 63.4141L91.0562 69.6735C91.0203 69.8766 90.9047 70.0594 90.7343 70.1766C90.6015 70.2688 90.4437 70.3172 90.2859 70.3172Z" fill="#3561B6"/>
<path d="M90.2859 70.3172C90.2406 70.3172 90.1953 70.3141 90.15 70.3047L87.2141 69.7844C86.8891 69.7266 86.6344 69.4703 86.5797 69.1437C86.5172 68.7703 86.5156 68.425 86.5766 68.0859C86.8766 66.3875 88.5016 65.2516 90.1984 65.5531C90.5375 65.6141 90.8625 65.7328 91.1922 65.9203C91.4797 66.0828 91.6328 66.4094 91.575 66.7344L91.0547 69.6703C91.0188 69.875 90.9031 70.0562 90.7328 70.175C90.6016 70.2687 90.4437 70.3172 90.2859 70.3172ZM88.1141 68.3578L89.6531 68.6297L89.925 67.0906C89.0797 66.9484 88.2641 67.5094 88.1141 68.3578ZM19.3078 56.25H17.9688C16.6766 56.25 15.625 55.1984 15.625 53.9062C15.625 52.6141 16.6766 51.5625 17.9688 51.5625H21.0938C21.525 51.5625 21.875 51.9125 21.875 52.3438C21.875 52.775 21.525 53.125 21.0938 53.125H17.9688C17.5375 53.125 17.1875 53.475 17.1875 53.9062C17.1875 54.3375 17.5375 54.6875 17.9688 54.6875H19.3078C19.7391 54.6875 20.0891 55.0375 20.0891 55.4688C20.0891 55.9 19.7391 56.25 19.3078 56.25Z" fill="#3561B6"/>
<path d="M19.5312 59.375H16.4062C15.975 59.375 15.625 59.025 15.625 58.5938C15.625 58.1625 15.975 57.8125 16.4062 57.8125H19.5312C19.9625 57.8125 20.3125 57.4625 20.3125 57.0312C20.3125 56.6 19.9625 56.25 19.5312 56.25H18.1922C17.7609 56.25 17.4109 55.9 17.4109 55.4688C17.4109 55.0375 17.7609 54.6875 18.1922 54.6875H19.5312C20.8234 54.6875 21.875 55.7391 21.875 57.0312C21.875 58.3234 20.8234 59.375 19.5312 59.375Z" fill="#3561B6"/>
<path d="M18.75 60.9375C18.3188 60.9375 17.9688 60.5875 17.9688 60.1562V50.7812C17.9688 50.35 18.3188 50 18.75 50C19.1812 50 19.5312 50.35 19.5312 50.7812V60.1562C19.5312 60.5875 19.1812 60.9375 18.75 60.9375Z" fill="#3561B6"/>
<path d="M21.0969 64.0531H5.47192C5.04067 64.0531 4.69067 63.7031 4.69067 63.2719V47.6469C4.69067 47.2156 5.04067 46.8656 5.47192 46.8656H21.0969C21.5282 46.8656 21.8782 47.2156 21.8782 47.6469C21.8782 48.0781 21.5282 48.4281 21.0969 48.4281H6.25317V62.4906H21.0969C21.5282 62.4906 21.8782 62.8406 21.8782 63.2719C21.8782 63.7031 21.5282 64.0531 21.0969 64.0531Z" fill="#3561B6"/>
<path d="M10.8422 57.8359C9.55005 57.8359 8.49849 56.7844 8.49849 55.4922C8.49849 54.2 9.55005 53.1484 10.8422 53.1484C12.1344 53.1484 13.186 54.2 13.186 55.4922C13.186 56.7844 12.136 57.8359 10.8422 57.8359ZM10.8422 54.7109C10.411 54.7109 10.061 55.0609 10.061 55.4922C10.061 55.9234 10.411 56.2734 10.8422 56.2734C11.2735 56.2734 11.6235 55.9234 11.6235 55.4922C11.6235 55.0609 11.2735 54.7109 10.8422 54.7109ZM6.25317 51.5531C5.90942 51.5531 5.5688 51.4906 5.21099 51.364C4.89849 51.2547 4.69067 50.9594 4.69067 50.6281V47.6469C4.69067 47.2156 5.04067 46.8656 5.47192 46.8656H8.45317C8.78442 46.8656 9.07974 47.0734 9.18911 47.3859C9.31567 47.7437 9.37817 48.0844 9.37817 48.4281C9.37817 50.1515 7.97661 51.5531 6.25317 51.5531ZM6.25317 49.9906C7.11411 49.9906 7.81567 49.289 7.81567 48.4281H6.25317V49.9906ZM8.45317 64.0531H5.47192C5.04067 64.0531 4.69067 63.7031 4.69067 63.2719V60.2906C4.69067 59.9593 4.89849 59.664 5.21099 59.5547C7.36411 58.7937 9.37817 60.425 9.37817 62.4906C9.37817 62.8344 9.31567 63.175 9.18911 63.5328C9.07974 63.8453 8.78442 64.0531 8.45317 64.0531ZM6.25317 62.4906H7.81567C7.81567 61.6297 7.11411 60.9281 6.25317 60.9281V62.4906Z" fill="#3561B6"/>
<path d="M9.75932 70.3125C9.38744 70.3125 9.05775 70.0468 8.99057 69.6671L7.88119 63.4078C7.80619 62.9828 8.089 62.5765 8.514 62.5015C8.94525 62.4281 9.34525 62.7093 9.42025 63.1343L10.3937 68.625L20.7578 66.789C21.1874 66.714 21.589 66.9984 21.664 67.4218C21.739 67.8468 21.4562 68.2531 21.0312 68.3281L9.89682 70.3C9.84994 70.3093 9.80307 70.3125 9.75932 70.3125Z" fill="#3561B6"/>
<path d="M9.75932 70.3125C9.38744 70.3125 9.05775 70.0469 8.99057 69.6672L8.47025 66.7312C8.41244 66.4062 8.56557 66.0797 8.85307 65.9156C9.18119 65.7281 9.50775 65.6078 9.84838 65.5484C11.5421 65.2484 13.1687 66.3844 13.4687 68.0797C13.5296 68.4187 13.5281 68.7656 13.4656 69.139C13.4109 69.4656 13.1578 69.7234 12.8312 69.7797L9.89525 70.3C9.84994 70.3094 9.80307 70.3125 9.75932 70.3125ZM10.1203 67.0875L10.3937 68.6265L11.9312 68.3547C11.7796 67.5047 10.9671 66.939 10.1203 67.0875ZM8.6515 48.4375C8.60619 48.4375 8.56088 48.4344 8.514 48.425C8.089 48.35 7.80619 47.9437 7.88119 47.5187L8.99057 41.2594C9.06557 40.8359 9.46244 40.55 9.89682 40.6265L21.1531 42.6203C21.5765 42.6953 21.8609 43.1015 21.7859 43.5265C21.7109 43.95 21.3093 44.2359 20.8796 44.1594L10.3937 42.3031L9.42025 47.7937C9.3515 48.1719 9.02182 48.4375 8.6515 48.4375Z" fill="#3561B6"/>
<path d="M9.23901 44.3328C9.46558 44.4609 9.71245 44.5625 9.98276 44.6109C11.2578 44.8359 12.4734 43.9859 12.7 42.7125C12.7484 42.4406 12.7375 42.175 12.6953 41.9187L9.75933 41.3984L9.23901 44.3328Z" fill="#B4CBEA"/>
<path d="M10.3938 45.4281C10.2125 45.4281 10.0313 45.4125 9.8469 45.3797C9.50784 45.3187 9.18128 45.2 8.85315 45.0125C8.56565 44.85 8.41253 44.5234 8.47034 44.1969L8.99065 41.2609C9.06565 40.8375 9.46253 40.5516 9.8969 40.6281L12.8328 41.1484C13.1578 41.2062 13.4125 41.4625 13.4672 41.7891C13.5297 42.1625 13.5313 42.5078 13.4703 42.8469C13.2016 44.3609 11.8797 45.4281 10.3938 45.4281ZM10.1203 43.8422C10.9625 43.9891 11.7813 43.425 11.9313 42.575L10.3938 42.3031L10.1203 43.8422ZM75.7797 77.3438H24.2172C22.0641 77.3438 20.311 75.5906 20.311 73.4375V40.625C20.311 38.4719 22.0641 36.7188 24.2172 36.7188H75.7797C77.9328 36.7188 79.686 38.4719 79.686 40.625V73.4375C79.686 75.5906 77.9328 77.3438 75.7797 77.3438ZM24.2172 38.2812C22.925 38.2812 21.8735 39.3328 21.8735 40.625V73.4375C21.8735 74.7297 22.925 75.7812 24.2172 75.7812H75.7797C77.0719 75.7812 78.1235 74.7297 78.1235 73.4375V40.625C78.1235 39.3328 77.0719 38.2812 75.7797 38.2812H24.2172Z" fill="#3561B6"/>
<path d="M66.4047 71.0938H33.7359C33.3047 71.0938 32.9547 70.7437 32.9547 70.3125C32.9547 67.2969 30.5016 64.8438 27.4859 64.8438C27.275 64.8203 27.0094 64.7734 26.8609 64.6266C26.7109 64.4797 26.5625 64.2859 26.5625 64.0766V49.9844C26.5625 49.775 26.6469 49.575 26.7953 49.4281C26.9438 49.2828 27.1516 49.2031 27.3547 49.2031C27.3891 49.2031 27.4937 49.2141 27.5281 49.2188C30.5016 49.2188 32.9547 46.7656 32.9547 43.75C32.9547 43.3188 33.3047 42.9688 33.7359 42.9688H66.4047C66.8359 42.9688 67.1859 43.3188 67.1859 43.75C67.1859 46.7656 69.6391 49.2188 72.6547 49.2188C73.0859 49.2188 73.4359 49.5687 73.4359 50V64.0625C73.4359 64.4937 73.0859 64.8438 72.6547 64.8438C69.6391 64.8438 67.1859 67.2969 67.1859 70.3125C67.1859 70.7437 66.8359 71.0938 66.4047 71.0938ZM34.4734 69.5312H65.6672C66.0281 66.2766 68.6203 63.6859 71.8734 63.325V50.7375C68.6187 50.3766 66.0281 47.7844 65.6672 44.5312H34.4734C34.1078 47.8328 31.4453 50.4531 28.1234 50.7516V63.3094C31.4453 63.6094 34.1078 66.2297 34.4734 69.5312Z" fill="#3561B6"/>
<path d="M49.9984 64.0625C46.1219 64.0625 42.9672 60.9078 42.9672 57.0312C42.9672 53.1547 46.1219 50 49.9984 50C53.875 50 57.0297 53.1547 57.0297 57.0312C57.0297 60.9078 53.875 64.0625 49.9984 64.0625ZM49.9984 51.5625C46.9828 51.5625 44.5297 54.0156 44.5297 57.0312C44.5297 60.0469 46.9828 62.5 49.9984 62.5C53.014 62.5 55.4672 60.0469 55.4672 57.0312C55.4672 54.0156 53.014 51.5625 49.9984 51.5625ZM42.9672 38.2812H35.1547C34.7234 38.2812 34.3734 37.9313 34.3734 37.5V34.375C34.3734 33.9438 34.7234 33.5938 35.1547 33.5938H42.9672C43.3984 33.5938 43.7484 33.9438 43.7484 34.375V37.5C43.7484 37.9313 43.3984 38.2812 42.9672 38.2812ZM35.9359 36.7188H42.1859V35.1562H35.9359V36.7188Z" fill="#3561B6"/>
<path d="M61.7172 35.1562C61.2859 35.1562 60.9359 34.8062 60.9359 34.375V26.5625C60.9359 25.2703 59.8843 24.2188 58.5922 24.2188H39.8422C38.55 24.2188 37.4984 25.2703 37.4984 26.5625V34.375C37.4984 34.8062 37.1484 35.1562 36.7172 35.1562C36.2859 35.1562 35.9359 34.8062 35.9359 34.375V26.5625C35.9359 24.4094 37.689 22.6562 39.8422 22.6562H58.5922C60.7453 22.6562 62.4984 24.4094 62.4984 26.5625V34.375C62.4984 34.8062 62.1484 35.1562 61.7172 35.1562Z" fill="#3561B6"/>
<path d="M57.0297 35.1562C56.5984 35.1562 56.2484 34.8063 56.2484 34.375V28.9062H42.1859V34.375C42.1859 34.8063 41.8359 35.1562 41.4047 35.1562C40.9734 35.1562 40.6234 34.8063 40.6234 34.375V28.125C40.6234 27.6938 40.9734 27.3438 41.4047 27.3438H57.0297C57.4609 27.3438 57.8109 27.6938 57.8109 28.125V34.375C57.8109 34.8063 57.4609 35.1562 57.0297 35.1562Z" fill="#3561B6"/>
<path d="M63.2797 38.2812H55.4672C55.0359 38.2812 54.6859 37.9313 54.6859 37.5V34.375C54.6859 33.9438 55.0359 33.5938 55.4672 33.5938H63.2797C63.7109 33.5938 64.0609 33.9438 64.0609 34.375V37.5C64.0609 37.9313 63.7109 38.2812 63.2797 38.2812ZM56.2484 36.7188H62.4984V35.1562H56.2484V36.7188ZM42.9672 38.2812H35.1547C34.7234 38.2812 34.3734 37.9313 34.3734 37.5V34.375C34.3734 33.9438 34.7234 33.5938 35.1547 33.5938H42.9672C43.3984 33.5938 43.7484 33.9438 43.7484 34.375V37.5C43.7484 37.9313 43.3984 38.2812 42.9672 38.2812ZM35.9359 36.7188H42.1859V35.1562H35.9359V36.7188Z" fill="#3561B6"/>
</svg>
