<svg width="65" height="65" viewBox="0 0 65 65" fill="none" xmlns="http://www.w3.org/2000/svg">
<g clip-path="url(#clip0_8_88)">
<path fill-rule="evenodd" clip-rule="evenodd" d="M11.2136 30.0187C10.8785 29.2133 10.2497 28.6556 9.41171 28.418L9.04228 28.3133V27.7429C9.04228 27.4614 8.81274 27.2351 8.53192 27.2351C8.25339 27.2351 8.02754 27.4652 8.02754 27.7429V28.3189L7.66242 28.4258C6.59259 28.739 5.80726 29.6082 5.86477 30.7566C5.93611 32.1812 7.20234 32.7688 8.45855 32.9749C9.25099 33.1049 10.3178 33.3742 10.4318 34.3233C10.4657 34.6059 10.4058 34.8507 10.2259 35.0722L10.2201 35.0791L10.2142 35.0859C9.85236 35.5004 9.15298 35.6734 8.6232 35.6875C7.75624 35.7105 6.83989 35.3125 6.61354 34.3993C6.5465 34.1285 6.27203 33.9636 6.00137 34.031C5.72994 34.0987 5.56033 34.3739 5.62851 34.6465C5.87873 35.6465 6.66495 36.335 7.64795 36.5915L8.02754 36.6906V37.2592C8.02754 37.5368 8.25339 37.767 8.53192 37.767C8.81274 37.767 9.04228 37.5406 9.04228 37.2592V36.6966L9.43583 36.6057C10.0056 36.4742 10.5926 36.1968 10.9811 35.7486C11.3604 35.311 11.5049 34.7722 11.4357 34.1996C11.2574 32.7253 9.93895 32.1888 8.6232 31.9726C7.91341 31.8559 6.92381 31.5823 6.88077 30.708C6.84459 29.9722 7.42337 29.5154 8.07883 29.3676C8.97715 29.165 9.91102 29.5341 10.2816 30.4135C10.3895 30.6695 10.6837 30.7936 10.941 30.6857C11.201 30.5769 11.3216 30.2784 11.2136 30.0187ZM32.5014 20.2285C34.759 20.2285 35.9381 21.5881 35.9381 23.8278C35.9381 24.8759 35.6697 25.9586 35.1107 26.851C34.6223 27.6311 33.8824 28.2949 32.9539 28.4659C32.8047 28.4933 32.6533 28.5073 32.5014 28.5073C32.3449 28.5073 32.1886 28.4924 32.0349 28.4635C31.1083 28.2884 30.3704 27.6251 29.8832 26.8452C29.3262 25.954 29.059 24.8739 29.059 23.8278C29.0588 21.5862 30.2441 20.2285 32.5014 20.2285ZM15.5442 32.5011C15.5442 36.3678 12.3984 39.5116 8.53192 39.5116C4.66785 39.5116 1.52563 36.3643 1.52563 32.5011C1.52563 28.6379 4.66798 25.4909 8.53192 25.4909C12.3983 25.4909 15.5442 28.6344 15.5442 32.5011Z" fill="#B4CBEA"/>
<path fill-rule="evenodd" clip-rule="evenodd" d="M40.3595 33.8761C40.3595 32.2535 38.4848 31.5467 37.3708 31.2698C34.0827 30.4535 30.8064 30.4523 27.6381 31.2672C26.2724 31.6189 24.6434 32.3565 24.6434 33.8761V44.4235C24.6434 45.5077 25.3561 46.437 26.3683 46.8164V37.3851C26.3683 36.8241 26.8234 36.3695 27.3864 36.3695C27.9495 36.3695 28.4046 36.8241 28.4046 37.3851V62.97H31.6269V52.085C31.6269 51.5251 32.082 51.0694 32.6391 51.0694C33.2021 51.0694 33.6573 51.5251 33.6573 52.085V62.97H36.598V37.3851C36.598 36.8241 37.0531 36.3695 37.6162 36.3695C38.1731 36.3695 38.6284 36.8241 38.6284 37.3851V46.8164C39.6406 46.437 40.3594 45.5077 40.3594 44.4235V33.8761H40.3595ZM29.5666 23.8278C29.5666 26.0887 30.9082 27.9995 32.5014 27.9995C34.0885 27.9995 35.4302 26.0887 35.4302 23.8278C35.4302 21.2722 33.837 20.7363 32.5014 20.7363C31.1658 20.7363 29.5666 21.2722 29.5666 23.8278ZM42.3899 33.8761V44.4235C42.3899 46.6274 40.7787 48.4757 38.6285 48.9263V63.9856C38.6285 64.5466 38.1733 65.0012 37.6163 65.0012H27.3864C27.1169 65.0012 26.8593 64.8946 26.6677 64.704C26.476 64.5136 26.3683 64.2546 26.3683 63.9855V48.9263C24.224 48.4757 22.6129 46.6274 22.6129 44.4235V33.8761C22.6129 31.7066 24.26 30.0396 27.1348 29.2993C27.9374 29.0925 28.746 28.9362 29.5605 28.8246C28.3387 27.6935 27.5361 25.8757 27.5361 23.8278C27.5361 21.7724 28.3387 20.5892 29.0155 19.9582C29.8899 19.1383 31.0938 18.7051 32.5012 18.7051C33.9028 18.7051 35.1066 19.1381 35.987 19.9582C36.6578 20.5892 37.4604 21.7724 37.4604 23.8278C37.4604 25.8807 36.6578 27.7024 35.43 28.8324C36.2386 28.9428 37.0472 29.0963 37.8557 29.2983C40.7368 30.0118 42.3899 31.6811 42.3899 33.8761ZM32.6691 7.50541C31.3814 7.29314 31.3574 6.86036 31.3514 6.71703C31.3215 6.13051 31.9564 5.94147 32.154 5.89704C32.5972 5.79662 33.4417 5.83966 33.7771 6.64467C33.9927 7.16124 34.5916 7.40499 35.1067 7.1879C35.6217 6.97081 35.8674 6.3754 35.6517 5.8573C35.2085 4.80778 34.394 4.2106 33.5134 3.96329V3.77769C33.5134 3.21706 33.0583 2.76244 32.5012 2.76244C31.9382 2.76244 31.4831 3.21706 31.4831 3.77769V3.97357C30.1174 4.37246 29.261 5.48939 29.3269 6.81593C29.3628 7.64379 29.812 9.09474 32.3396 9.51C33.8071 9.75121 33.8669 10.2184 33.8909 10.4177C33.9149 10.6168 33.8609 10.712 33.795 10.7858C33.5854 11.0258 33.0883 11.2022 32.5732 11.2136C31.9923 11.2325 31.2436 11.0002 31.0759 10.3121C30.9382 9.76746 30.3871 9.43764 29.8421 9.57208C29.2971 9.70779 28.9676 10.2588 29.1054 10.8034C29.3928 11.9588 30.2972 12.8054 31.4832 13.1166V13.2931C31.4832 13.8529 31.9383 14.3087 32.5014 14.3087C33.0584 14.3087 33.5136 13.8529 33.5136 13.2931V13.1344C34.2562 12.9644 34.909 12.6061 35.3343 12.1148C35.7955 11.5767 35.9932 10.905 35.9093 10.1724C35.7297 8.72683 34.6456 7.82901 32.6691 7.50541ZM7.51966 27.743V27.9385C6.15403 28.3384 5.29164 29.4555 5.35752 30.782C5.39942 31.6097 5.84261 33.0608 8.37621 33.4761C9.84367 33.7173 9.90346 34.1845 9.92745 34.3839C9.95132 34.5832 9.89153 34.6783 9.8316 34.752C9.62201 34.992 9.11889 35.1672 8.60981 35.1799C8.0229 35.1963 7.28023 34.9665 7.10656 34.2772C6.97478 33.7337 6.4238 33.4025 5.87867 33.5383C5.33366 33.674 4.99825 34.225 5.13599 34.7696C5.42354 35.9249 6.32783 36.7717 7.51979 37.0828V37.2592C7.51979 37.819 7.97504 38.2748 8.53199 38.2748C9.09502 38.2748 9.55015 37.819 9.55015 37.2592V37.1006C10.2928 36.9291 10.9397 36.5726 11.3649 36.0812C11.8321 35.5429 12.0298 34.8712 11.9399 34.1387C11.7662 32.6928 10.6762 31.7951 8.70566 31.4715C7.41797 31.2595 7.39398 30.8264 7.38801 30.6831C7.35805 30.0966 7.99294 29.906 8.19061 29.863C8.6338 29.7614 9.47233 29.8059 9.8137 30.6106C10.0293 31.1272 10.6223 31.3711 11.1373 31.154C11.6585 30.9369 11.898 30.3415 11.6823 29.8234C11.2451 28.7722 10.4246 28.1771 9.55002 27.9292V27.7428C9.55002 27.1829 9.0949 26.7271 8.53186 26.7271C7.97492 26.7275 7.51966 27.1831 7.51966 27.743ZM62.9694 32.5011C62.9694 28.9161 60.0525 25.9987 56.4649 25.9987C52.8773 25.9987 49.9605 28.9162 49.9605 32.5011C49.9605 36.0862 52.8773 39.0038 56.4649 39.0038C60.0526 39.0038 62.9694 36.0862 62.9694 32.5011ZM38.9998 8.53487C38.9998 12.1214 36.083 15.0375 32.5014 15.0375C28.9138 15.0375 25.9969 12.1214 25.9969 8.53487C25.9969 4.94984 28.9138 2.03233 32.5014 2.03233C36.083 2.03246 38.9998 4.94984 38.9998 8.53487ZM8.53186 25.9987C12.1194 25.9987 15.0363 28.9162 15.0363 32.5011C15.0363 36.0862 12.1194 39.0038 8.53186 39.0038C4.95026 39.0038 2.03338 36.0862 2.03338 32.5011C2.03338 28.9161 4.95026 25.9987 8.53186 25.9987ZM64.9998 32.5011C64.9998 37.2075 61.1726 41.035 56.4649 41.035C56.3032 41.035 56.1475 41.0299 55.9858 41.0209C54.1291 46.1487 50.6013 50.5716 45.9835 53.5359C45.8099 53.6453 45.6182 53.6972 45.4326 53.6972C45.0971 53.6972 44.7738 53.5334 44.5761 53.2313C44.2707 52.759 44.4084 52.1304 44.8816 51.8273C49.0262 49.1662 52.2186 45.2294 53.9554 40.6578C50.4697 39.5839 47.9301 36.3337 47.9301 32.501C47.9301 28.6696 50.4697 25.4196 53.9554 24.3443C51.6315 18.2351 46.7682 13.3719 40.659 11.046C39.5809 14.5295 36.3286 17.0687 32.5015 17.0687C28.6683 17.0687 25.4161 14.5295 24.344 11.0473C18.2349 13.3719 13.3714 18.2352 11.0476 24.3443C14.5273 25.4196 17.0669 28.6695 17.0669 32.501C17.0669 36.3337 14.5273 39.5839 11.0416 40.6578C12.7845 45.2294 15.9709 49.1662 20.1156 51.8273C20.5887 52.1304 20.7265 52.7589 20.421 53.2313C20.2293 53.5333 19.9 53.6972 19.5646 53.6972C19.3789 53.6972 19.1873 53.6451 19.0196 53.5359C14.4018 50.5717 10.874 46.1487 9.01136 41.0209C8.85559 41.0298 8.69398 41.035 8.53224 41.035C3.83053 41.035 -0.00256348 37.2074 -0.00256348 32.5011C-0.00256348 27.7949 3.83066 23.9674 8.53224 23.9674C8.69398 23.9674 8.85572 23.9725 9.01136 23.9814C11.5266 17.0433 17.0428 11.531 23.9785 9.01361C23.9725 8.85492 23.9666 8.69636 23.9666 8.535C23.9666 3.82872 27.7938 0.00146484 32.5015 0.00146484C37.2032 0.00146484 41.0364 3.82872 41.0364 8.535C41.0364 8.69636 41.0305 8.85505 41.0184 9.01361C47.9601 11.531 53.4703 17.0433 55.9859 23.9814C56.1477 23.9725 56.3033 23.9674 56.465 23.9674C61.1726 23.9674 64.9998 27.7949 64.9998 32.5011ZM59.8728 34.1388C59.9626 34.8713 59.7651 35.543 59.2979 36.0813C58.8726 36.5726 58.2257 36.9306 57.4831 37.1007V37.2593C57.4831 37.8192 57.0278 38.2749 56.4649 38.2749C55.902 38.2749 55.4527 37.8192 55.4527 37.2593V37.083C54.2609 36.7718 53.3565 35.925 53.0689 34.7697C52.9312 34.2251 53.2666 33.6741 53.8116 33.5384C54.3506 33.4026 54.9016 33.7338 55.0394 34.2773C55.213 34.9666 55.9557 35.1963 56.5368 35.18C57.0518 35.1674 57.5549 34.9922 57.7586 34.7521C57.8244 34.6785 57.8784 34.5834 57.8544 34.3841C57.8304 34.1847 57.7766 33.7175 56.3091 33.4762C53.7757 33.0609 53.3325 31.6099 53.2904 30.7821C53.2246 29.4556 54.0871 28.3384 55.4526 27.9386V27.7431C55.4526 27.1833 55.9019 26.7275 56.4648 26.7275C57.0278 26.7275 57.4829 27.1833 57.4829 27.7431V27.9296C58.3574 28.1774 59.1719 28.774 59.6151 29.8238C59.8308 30.3417 59.5911 30.9371 59.0701 31.1544C58.5551 31.3715 57.9621 31.1277 57.7404 30.611C57.405 29.8063 56.5605 29.7618 56.1233 29.8634C55.9256 29.9064 55.2907 30.0968 55.3207 30.6835C55.3266 30.8268 55.3445 31.26 56.6383 31.4719C58.609 31.7952 59.6992 32.6929 59.8728 34.1388Z" fill="#3561B6"/>
</g>
<defs>
<clipPath id="clip0_8_88">
<rect width="65" height="65" fill="white"/>
</clipPath>
</defs>
</svg>
