<svg width="123" height="66" viewBox="0 0 123 66" fill="none" xmlns="http://www.w3.org/2000/svg">
<path d="M110.871 38.7615C109.034 38.6271 107.053 38.1699 105.481 37.5179C105.125 37.3703 104.873 36.0291 104.694 35.9618L104.327 34.1661C104.279 32.5661 104.218 30.7985 104.191 30.2382L104.143 29.2194H104.802H105.461L105.628 30.4726C106.254 35.1541 108.75 37.5103 113.085 37.5103C115.963 37.5103 117.748 36.4409 118.647 34.1774C118.927 33.4712 118.97 33.1071 118.976 31.3958C118.982 29.448 118.977 29.4165 118.519 28.4873C117.714 26.8565 116.9 26.3158 112.846 24.7171C111.644 24.2429 110.216 23.6331 109.673 23.3621C106.132 21.595 104.378 19.088 104.385 15.805C104.394 11.6049 106.755 8.57345 110.872 7.47626C112.304 7.09433 115.796 7.13601 117.29 7.55289C118.691 7.94378 120.543 8.67049 120.739 8.90633C120.823 9.00705 120.919 10.1958 120.962 11.6684C121.004 13.0902 121.061 14.5856 121.09 14.9913L121.142 15.7291H120.474H119.807L119.514 14.2494C118.832 10.8037 117.231 8.98759 114.473 8.53234C112.24 8.16383 109.535 9.01717 108.47 10.4259C107.66 11.4967 107.416 12.3354 107.416 14.0428C107.416 15.4002 107.449 15.5842 107.834 16.3417C108.335 17.3258 109.046 17.9694 110.378 18.6431C111.311 19.1151 114.461 20.3664 114.716 20.3664C114.964 20.3664 117.794 21.7636 118.525 22.2472C120.56 23.5924 121.693 25.3976 122.096 27.9369C122.294 29.178 122.303 29.5918 122.157 30.7419C121.828 33.3476 121.061 34.9619 119.443 36.4568C117.368 38.3729 114.841 39.0523 110.871 38.7615ZM60.8138 38.5717C56.3235 37.7198 54.2003 35.3788 53.6092 30.6283C53.5179 29.8947 53.4611 25.4842 53.4611 19.1405V8.84341H51.7684H50.0757V8.21105V7.57869H55.6475H61.2192V8.20685V8.83501L59.4208 8.87434L57.6223 8.91367L57.581 18.0477C57.5273 29.9329 57.6629 31.847 58.7083 33.9624C59.7395 36.0493 61.732 37.0887 64.7012 37.0887C68.0686 37.0887 69.9457 35.8417 70.9583 32.932C71.606 31.0708 71.6558 30.0875 71.6567 19.1368L71.6575 8.84341H69.9648H68.2721V8.21105V7.57869H72.3628H76.4535V8.21105V8.84341H74.9074H73.3613L73.3173 20.0502C73.2737 31.1389 73.2699 31.2688 72.9592 32.3812C72.0412 35.6674 70.2264 37.5085 67.0731 38.3524C65.6002 38.7466 62.3381 38.8609 60.8138 38.5717ZM78.314 37.7631L78.3578 37.159L80.0505 37.1367L81.7431 37.1144L81.7791 22.9832L81.815 8.85207L80.0864 8.8126L78.3578 8.77315L78.3144 8.17592L78.271 7.57869H85.1992C89.5806 7.57869 92.5003 7.63613 93.1418 7.73494C95.5914 8.11225 97.2643 9.1836 98.164 10.9513C98.9397 12.4754 99.1786 14.3846 98.8166 16.1678C98.4283 18.0805 97.6275 19.2596 96.022 20.2821C94.9369 20.9731 94.2379 21.2593 92.8867 21.5653C92.2661 21.7059 91.7058 21.8652 91.6418 21.9193C91.5778 21.9734 91.9586 22.0613 92.4882 22.1146C97.937 22.663 100.324 25.0411 100.324 29.922C100.324 32.6092 99.6832 34.3266 98.0952 35.8973C97.1218 36.8601 95.9403 37.4995 94.275 37.9647C93.2106 38.262 92.8873 38.2754 85.7196 38.3205L78.2703 38.3673L78.314 37.7631ZM91.1667 36.8791C93.5746 36.2543 95.1852 34.6012 95.7202 32.2057C96.0567 30.699 95.9418 27.9369 95.4937 26.7602C94.9488 25.3294 94.03 24.1839 92.9101 23.5392C91.7906 22.8947 90.9792 22.7553 88.3473 22.7553H85.9044V29.922V37.0887H88.1316C89.6508 37.0887 90.6157 37.0221 91.1667 36.8791ZM91.1588 21.1575C93.4914 20.407 94.8519 18.0998 94.8283 14.9343C94.8038 11.6329 93.1189 9.25724 90.5364 8.88242C90.1222 8.82232 88.9106 8.79238 87.8439 8.81588L85.9044 8.85862V15.0809C85.9044 18.5032 85.952 21.3524 86.0101 21.4125C86.194 21.6023 90.4279 21.3926 91.1588 21.1575Z" fill="#3561B6"/>
<path d="M20.6297 46.4259C20.1855 46.2981 20.1713 46.2704 20.1713 45.5363C20.1713 44.7933 20.1624 44.7769 19.7128 44.6901C18.8741 44.5281 17.429 43.8706 16.7539 43.3437C14.2674 41.4033 13.4152 38.3686 14.5349 35.4414C15.2508 33.5699 17.226 31.8966 19.3622 31.352C20.3943 31.0888 20.3453 30.7945 19.2544 30.7039L18.408 30.6336V29.931V29.2284L19.2896 29.1865L20.1713 29.1447V25.5681C20.1713 23.6009 20.1417 21.9914 20.1056 21.9914C20.0694 21.9914 19.0056 22.8293 17.7415 23.8533C16.4774 24.8774 15.2692 25.8509 15.0566 26.0166C14.844 26.1823 14.671 26.372 14.6721 26.4381C14.6733 26.5043 14.8893 26.8114 15.1523 27.1205C15.6163 27.6661 15.6238 27.6939 15.4043 28.0651C15.2799 28.2754 15.0033 28.5082 14.7896 28.5824C14.4334 28.7061 14.3542 28.6625 13.8407 28.0595C13.4369 27.5854 13.2369 27.4439 13.1249 27.5531C13.0121 27.663 13.0933 27.9681 13.4207 28.6653C13.8121 29.4984 13.8806 29.8172 13.9363 31.0648C13.9891 32.2494 13.9485 32.6734 13.7064 33.4656C13.0406 35.6434 11.4466 37.2311 9.26 37.8945C8.4655 38.1356 8.05093 38.1753 6.93255 38.1173C5.3761 38.0367 4.47818 37.737 3.21067 36.8752C2.76545 36.5725 2.35285 36.3274 2.29379 36.3306C2.23473 36.3337 1.97058 36.5201 1.7068 36.7448C1.253 37.1314 1.2057 37.1423 0.827576 36.9475C0.439066 36.7474 1.37009e-05 36.1039 0 35.7346C-2.28347e-06 35.6341 0.23453 35.3558 0.521185 35.1161L1.04238 34.6801L0.666443 33.8166C-0.985429 30.0221 0.697038 25.8783 4.45368 24.4889C5.13439 24.2371 5.56478 24.1826 6.77077 24.1956C8.51408 24.2144 9.36915 24.4794 10.8245 25.4516C11.9759 26.2207 12.261 26.0922 11.4881 25.1525C10.9648 24.5163 10.9565 24.489 11.177 24.1234C11.3016 23.9169 11.5747 23.6857 11.784 23.6096C12.1319 23.483 12.2144 23.5281 12.7472 24.1355L13.33 24.7998L16.3627 22.3494C18.0307 21.0017 19.3954 19.833 19.3954 19.7524C19.3954 19.6718 18.0624 18.5345 16.4332 17.225L13.471 14.844L13.0831 15.212C12.5848 15.6846 12.5934 15.9616 13.1184 16.3482C13.635 16.7288 13.6384 16.7963 13.1692 17.3518L12.7968 17.7927L12.3514 17.3626C11.8188 16.8484 11.7609 16.8414 11.4106 17.2487C10.839 17.9137 10.8347 18.0024 11.3577 18.3572C11.6268 18.5397 11.8474 18.7596 11.8479 18.8458C11.849 19.0294 11.3082 19.7433 11.1686 19.7425C11.0404 19.7417 8.40421 17.6426 8.35128 17.4991C8.32837 17.437 8.979 17.0211 9.79713 16.5748C10.6152 16.1286 11.2846 15.7147 11.2846 15.655C11.2846 15.5953 11.1012 15.4163 10.877 15.2573L10.4693 14.9681L9.09448 15.7437C8.33832 16.1704 7.69642 16.4963 7.66805 16.468C7.63968 16.4398 7.83162 15.7412 8.09458 14.9158L8.57269 13.4149L8.21211 13.1323C8.01379 12.9769 7.79116 12.8698 7.71739 12.8943C7.64361 12.9188 7.36641 13.6289 7.10138 14.4724C6.83636 15.3158 6.59439 16.0309 6.56368 16.0615C6.50676 16.1182 3.66751 13.8474 3.66751 13.7452C3.66751 13.6108 4.29654 12.8573 4.40873 12.8573C4.4769 12.8573 4.75565 13.0268 5.02817 13.2338L5.52366 13.6103L5.93563 13.1712C6.16221 12.9297 6.3476 12.6879 6.3476 12.6339C6.3476 12.58 6.1125 12.3334 5.82515 12.0859L5.3027 11.636L5.64883 11.2005C6.07309 10.6667 6.13082 10.661 6.65544 11.1008C6.88595 11.294 7.12265 11.4521 7.18146 11.4521C7.31766 11.4521 8.04241 10.6467 8.03392 10.5048C8.03041 10.4461 7.49373 9.98714 6.8413 9.48477C5.52109 8.4682 5.41717 8.22712 6.00115 7.53572C6.73407 6.668 6.03789 6.21733 14.3879 12.9648C18.9017 16.6124 20.0119 17.4946 20.0881 17.4946C20.1338 17.4946 20.1713 15.8821 20.1713 13.9113V10.3279H19.466H18.7607V11.0305V11.7331H18.1259H17.4912V11.0305V10.3279H16.7859H16.0806V11.0305V11.7331H15.4458H14.8111V9.83813V7.9431L15.4811 8.20645C15.8496 8.35129 16.5588 8.63492 17.057 8.83675C17.5553 9.03859 18.0155 9.20372 18.0797 9.20372C18.1439 9.20372 18.196 8.96659 18.1956 8.67675L18.1947 8.14979L16.6242 7.532L15.0537 6.9142L16.6251 6.28781L18.1965 5.66141V5.11392C18.1965 4.8128 18.166 4.56642 18.1288 4.56642C18.0915 4.56642 17.4092 4.8263 16.6124 5.14392C15.8156 5.46154 15.0844 5.75287 14.9874 5.79131C14.8515 5.84517 14.8111 5.42239 14.8111 3.9491V2.037H15.4458H16.0806V2.73962V3.44223H16.7859H17.4912V2.73962V2.037H18.1259H18.7607V2.73962V3.44223H19.466H20.1713V1.83162V0.221014L20.7148 0.0752038C21.0981 -0.0276162 21.3892 -0.025159 21.7022 0.0835344L22.1461 0.237675V8.88119C22.1461 16.1906 22.1762 17.5132 22.3416 17.45C22.5149 17.3837 26.3672 14.3057 33.0106 8.92527C34.2149 7.94998 35.2787 7.10368 35.3746 7.0446C35.6432 6.87923 36.0753 7.07271 36.3707 7.49061C36.9572 8.32027 36.9276 8.39682 35.6226 9.43044C34.9601 9.95518 34.4181 10.4376 34.4181 10.5024C34.4181 10.6825 35.0187 11.4521 35.1593 11.4521C35.2275 11.4521 35.5082 11.2812 35.7831 11.0723L36.2829 10.6925L36.6828 11.1777L37.0826 11.6629L36.5269 12.1547L35.9711 12.6466L36.4121 13.1261C36.714 13.4544 36.9077 13.5652 37.0263 13.4774C37.9805 12.7717 37.9349 12.7834 38.298 13.1511C38.4819 13.3373 38.6522 13.5626 38.6764 13.6517C38.7246 13.8294 35.9797 16.1121 35.8292 16.0195C35.778 15.9879 35.5247 15.2636 35.2664 14.4097C35.0081 13.5559 34.7275 12.8594 34.6427 12.862C34.558 12.8646 34.3414 12.9889 34.1616 13.1383L33.8345 13.4098L34.3214 14.9604C34.5891 15.8132 34.7775 16.511 34.7401 16.511C34.7026 16.511 34.0381 16.1566 33.2633 15.7234L31.8548 14.9358L31.4447 15.3272L31.0346 15.7186L31.9153 16.2034C32.3996 16.47 33.1031 16.8606 33.4786 17.0712L34.1612 17.4541L32.6889 18.6516L31.2167 19.849L30.8221 19.3564L30.4276 18.8638L30.9665 18.413L31.5055 17.9622L31.1113 17.4474C30.8945 17.1642 30.6862 16.9325 30.6483 16.9325C30.6105 16.9325 30.3397 17.1219 30.0464 17.3532L29.5132 17.7739L29.1308 17.2745L28.7485 16.7751L29.2814 16.3161L29.8143 15.8572L29.4041 15.345C29.0534 14.9071 28.9586 14.8577 28.7509 15.0044C28.1529 15.4267 22.8665 19.6803 22.8593 19.7449C22.855 19.7845 23.2163 20.1007 23.6624 20.4475C24.1085 20.7943 25.5072 21.9159 26.7705 22.9399C28.0339 23.964 29.0932 24.8019 29.1245 24.8019C29.1558 24.8019 29.3866 24.5173 29.6373 24.1695C30.1766 23.4213 30.4719 23.3784 31.0585 23.9628L31.4857 24.3884L31.1147 24.8411C30.6333 25.4284 30.3971 25.9018 30.5229 26.0271C30.578 26.082 30.7041 26.0659 30.8031 25.9914C31.7409 25.2851 32.8775 24.6383 33.4776 24.4694C36.9602 23.4893 40.1266 24.8041 41.6476 27.8621L42.2468 29.0667V30.8338C42.2468 32.6594 42.2362 32.7058 41.3888 34.5737C41.3524 34.654 41.5787 34.907 41.8917 35.1358C42.3641 35.4813 42.4468 35.6116 42.3786 35.9033C42.29 36.2821 41.8363 36.8302 41.4314 37.0476C41.2352 37.153 41.0547 37.0755 40.6074 36.6941L40.0347 36.2057L39.3915 36.6948C38.0736 37.697 36.7113 38.1539 35.0585 38.1482C33.1027 38.1415 31.6855 37.5678 30.3979 36.2618C29.3975 35.247 28.8622 34.3155 28.57 33.0806C28.1965 31.502 28.3364 30.1053 29.0234 28.5547C29.291 27.9506 29.3431 27.6997 29.225 27.5821C29.107 27.4646 28.9965 27.5114 28.7965 27.7639C27.9336 28.8536 28.0287 28.7949 27.5373 28.5418C27.2921 28.4154 27.0216 28.182 26.9362 28.0231C26.7745 27.7221 26.8095 27.6433 27.5006 26.7513L27.7867 26.3821L25.11 24.2228C23.6378 23.0351 22.3676 22.0415 22.2873 22.0149C22.1884 21.982 22.1534 23.1181 22.1789 25.5271L22.2166 29.0879L23.0596 29.131C23.9724 29.1776 24.1166 29.2867 24.1166 29.931C24.1166 30.5753 23.9724 30.6844 23.0596 30.7311C21.8573 30.7925 21.9444 31.0786 23.2823 31.463C25.0604 31.974 26.3268 32.8986 27.3343 34.4218C28.5513 36.2617 28.6838 38.9045 27.6638 40.9964C26.9691 42.4213 25.1149 43.9751 23.5819 44.4171C22.1093 44.8416 22.1461 44.8117 22.1461 45.5827C22.1461 46.2324 22.119 46.284 21.7018 46.4288C21.2 46.6031 21.2463 46.6033 20.6297 46.4259ZM20.1976 42.3719C20.238 41.7982 20.2814 41.7328 20.7002 41.6138C20.9817 41.5339 21.3356 41.5338 21.6171 41.6138C22.0404 41.734 22.0809 41.7976 22.1461 42.4422C22.2112 43.0872 22.2434 43.1375 22.5692 43.1035C23.2558 43.032 24.6424 42.2312 25.3093 41.521C26.3446 40.4183 26.717 39.4735 26.7203 37.9409C26.7218 37.2453 26.6399 36.4374 26.5383 36.1456C25.8468 34.1601 23.3887 33.6004 22.3252 35.1863C21.6916 36.1312 22.0418 37.5917 23.0231 38.0972C23.455 38.3197 24.498 38.3166 25.0025 38.0913C25.2211 37.9937 25.2493 38.0696 25.2493 38.7552C25.2493 39.4972 25.2309 39.5358 24.8051 39.6837C23.7916 40.0357 22.2653 39.6949 21.6634 38.9823C21.4734 38.7573 21.291 38.5732 21.258 38.5732C21.2251 38.5732 20.9761 38.7819 20.7047 39.0369C19.9185 39.7755 18.7546 40.0158 17.6133 39.6752L17.068 39.5124V38.7467C17.068 38.0658 17.0953 37.9943 17.3148 38.1003C17.4506 38.1659 17.9543 38.2201 18.4342 38.2207C19.2097 38.2218 19.3552 38.1757 19.7422 37.8062C20.6084 36.9791 20.6078 35.5791 19.7408 34.7723C18.4347 33.5569 16.2906 34.5624 15.7943 36.6232C15.2837 38.7436 16.1378 41.0575 17.8692 42.2442C18.5705 42.7249 19.906 43.2448 20.0566 43.0957C20.1098 43.0429 20.1733 42.7172 20.1976 42.3719ZM8.96758 36.3331C10.4746 35.8054 11.8154 34.5413 12.1394 33.3428C12.4028 32.3683 12.1973 31.5761 11.5013 30.8828C10.9634 30.3469 10.8276 30.2823 10.2382 30.2823C9.10416 30.2823 8.25782 30.9687 8.08519 32.0285C7.96681 32.7552 8.47492 33.7022 9.16604 34.0428L9.71322 34.3125L9.13323 34.7566C8.81424 35.0008 8.46815 35.2007 8.36415 35.2007C8.26014 35.2007 7.89417 34.9427 7.55086 34.6275C6.77777 33.9176 6.41718 33.0526 6.53559 32.192L6.62086 31.5722L5.92357 31.4767C4.85413 31.3301 3.79984 30.4549 3.38572 29.3698C3.25123 29.0174 3.28576 28.9405 3.77011 28.5141C4.0628 28.2565 4.33983 28.043 4.38573 28.0398C4.43164 28.0366 4.54267 28.2782 4.63248 28.5768C4.85231 29.3078 5.73819 29.931 6.55746 29.931C7.66891 29.931 8.60453 28.9938 8.60453 27.8804C8.60453 26.6603 7.56384 25.7845 6.11681 25.7869C3.50425 25.7913 1.24074 28.8242 1.70532 31.6981C1.86399 32.6796 2.17405 33.5144 2.37996 33.5144C2.45555 33.5144 2.70975 33.3531 2.94483 33.1561C3.35609 32.8113 3.38873 32.8063 3.80733 33.0219C4.04661 33.1452 4.34982 33.4705 4.48115 33.7448L4.71991 34.2436L4.19371 34.724C3.9043 34.9883 3.66751 35.2286 3.66751 35.2582C3.66751 35.4158 5.20616 36.2616 5.76642 36.412C6.75553 36.6775 8.07693 36.6449 8.96758 36.3331ZM37.3376 36.1237C37.8184 35.9077 38.3262 35.6049 38.466 35.4507C38.7134 35.1781 38.7078 35.1599 38.2619 34.7889C37.7307 34.3468 37.6854 33.9829 38.0965 33.4622C38.6388 32.7753 38.8933 32.7337 39.5138 33.2305L40.0678 33.674L40.3815 32.997C40.6395 32.4401 40.6952 32.0704 40.6952 30.9147C40.6952 29.6573 40.6533 29.4244 40.2969 28.7015C39.6985 27.4874 38.6535 26.4218 37.7202 26.0739C36.0565 25.4538 34.6341 25.8425 34.0147 27.0865C33.5756 27.9683 33.682 28.5653 34.4066 29.2872C35.3316 30.2087 36.523 30.1797 37.3732 29.2149C37.6099 28.9464 37.8035 28.5709 37.8035 28.3803C37.8035 27.9311 37.9112 27.9435 38.5472 28.4657C39.1481 28.9592 39.1763 29.1091 38.8047 29.8312C38.3316 30.7504 37.3435 31.406 36.3734 31.4446L35.8058 31.4671L35.8954 32.0626C36.0311 32.9644 35.7284 33.7622 34.9577 34.5332C34.5907 34.9003 34.1885 35.2007 34.0639 35.2007C33.9393 35.2007 33.5859 34.9994 33.2787 34.7535L32.7201 34.3062L33.1107 34.139C33.7966 33.8453 34.1699 33.3111 34.2468 32.5131C34.336 31.5883 34.0057 30.9273 33.2668 30.5517C32.1758 29.9973 31.1439 30.2954 30.5275 31.3431C29.6796 32.7845 30.4908 34.7417 32.3975 35.8549C33.3974 36.4387 34.1011 36.6076 35.335 36.5599C36.2026 36.5264 36.6655 36.4256 37.3376 36.1237Z" fill="#3561B6"/>
<path d="M7.39638 61.8152C6.5082 61.8152 5.69404 61.6788 4.95389 61.406C4.22432 61.1227 3.5899 60.7345 3.05065 60.2414C2.52197 59.7483 2.1096 59.1764 1.81354 58.5259C1.52806 57.8754 1.38531 57.1724 1.38531 56.417C1.38531 55.6091 1.53863 54.8694 1.84526 54.1979C2.1519 53.5264 2.57484 52.9441 3.11409 52.4509C3.66392 51.9578 4.29833 51.5801 5.01733 51.3178C5.73633 51.045 6.5082 50.9086 7.33294 50.9086C7.92506 50.9086 8.40087 50.9558 8.76037 51.0502C9.11987 51.1341 9.42651 51.2233 9.68027 51.3178C9.88117 51.4017 10.0715 51.4751 10.2512 51.5381C10.431 51.601 10.6319 51.6325 10.8539 51.6325C10.9702 51.6325 11.0707 51.6273 11.1553 51.6168C11.2399 51.5958 11.335 51.5748 11.4408 51.5538L11.5042 51.601C11.409 51.9683 11.3826 52.388 11.4249 52.8601C11.4778 53.3218 11.5676 53.8464 11.6945 54.4339H11.3139C11.0918 53.8988 10.7958 53.4005 10.4257 52.9388C10.0556 52.4667 9.61154 52.0942 9.09344 51.8214C8.58591 51.5381 7.99379 51.3964 7.31708 51.3964C6.61923 51.3964 5.97424 51.6063 5.38212 52.026C4.80057 52.4352 4.33534 53.0175 3.98641 53.7729C3.63748 54.5179 3.46302 55.394 3.46302 56.4012C3.46302 57.356 3.62691 58.2059 3.95469 58.9509C4.28247 59.6958 4.73713 60.2834 5.31868 60.7135C5.9108 61.1332 6.59279 61.3431 7.36466 61.3431C7.75588 61.3431 8.1471 61.2801 8.53833 61.1542C8.92955 61.0283 9.30491 60.8394 9.66441 60.5876C10.0239 60.3358 10.3517 60.0158 10.6478 59.6276C10.9544 59.2289 11.2081 58.7672 11.409 58.2426H11.8214C11.6945 58.7463 11.5888 59.2499 11.5042 59.7535C11.4196 60.2571 11.372 60.745 11.3615 61.2172H11.2346C10.9808 61.2172 10.7165 61.2434 10.4416 61.2959C10.1667 61.3483 9.88645 61.4113 9.60097 61.4847C9.28376 61.5582 8.94541 61.6316 8.58591 61.7051C8.22641 61.7785 7.8299 61.8152 7.39638 61.8152Z" fill="white"/>
<path d="M17.2505 61.7523C16.8804 61.7523 16.5421 61.6474 16.2354 61.4375C15.9288 61.2277 15.6856 60.9549 15.5058 60.6191C15.3261 60.2834 15.2362 59.9214 15.2362 59.5332C15.2362 59.3548 15.2521 59.2289 15.2838 59.1554C15.3261 59.0715 15.3895 59.0138 15.4741 58.9823L18.6462 57.8177C18.8577 57.7442 19.0004 57.6603 19.0744 57.5659C19.1484 57.461 19.1854 57.3193 19.1854 57.1409V56.6688C19.1854 56.2071 19.0744 55.8294 18.8524 55.5356C18.6303 55.2418 18.2867 55.095 17.8215 55.095C17.5148 55.095 17.2663 55.1632 17.076 55.2996C16.8857 55.4255 16.7905 55.5828 16.7905 55.7717C16.7905 55.8452 16.8064 55.9134 16.8381 55.9763C16.8804 56.0393 16.928 56.1022 16.9809 56.1652C17.0549 56.2596 17.113 56.3593 17.1553 56.4642C17.2082 56.5691 17.2346 56.6793 17.2346 56.7947C17.2346 57.0255 17.15 57.2091 16.9809 57.3455C16.8223 57.4819 16.6161 57.5501 16.3623 57.5501C16.098 57.5501 15.8918 57.4767 15.7438 57.3298C15.5957 57.1724 15.5217 56.9573 15.5217 56.6845C15.5217 56.3068 15.6539 55.9658 15.9182 55.6615C16.1826 55.3468 16.5209 55.1002 16.9333 54.9218C17.3456 54.733 17.7686 54.6385 18.2021 54.6385C18.6991 54.6385 19.1326 54.7277 19.5026 54.9061C19.8833 55.074 20.1794 55.3205 20.3908 55.6458C20.6129 55.9606 20.7239 56.3488 20.7239 56.8104V60.1784C20.7239 60.3883 20.745 60.5667 20.7873 60.7135C20.8402 60.8604 20.9618 60.9339 21.1521 60.9339C21.3424 60.9339 21.5751 60.8867 21.85 60.7922V61.1227C21.6491 61.2486 21.3847 61.385 21.057 61.5319C20.7398 61.6683 20.4596 61.7365 20.2164 61.7365C19.9943 61.7365 19.8146 61.6893 19.6771 61.5949C19.5397 61.5005 19.4392 61.3536 19.3758 61.1542C19.3123 60.9549 19.2806 60.7188 19.2806 60.446V60.2257L19.5978 60.5247C19.3758 60.7135 19.1326 60.9024 18.8682 61.0913C18.6039 61.2801 18.3343 61.4375 18.0594 61.5634C17.7844 61.6893 17.5148 61.7523 17.2505 61.7523ZM17.9642 60.8867C18.1334 60.8867 18.2973 60.8499 18.4559 60.7765C18.625 60.7031 18.7995 60.6034 18.9793 60.4775C19.1167 60.3725 19.1854 60.2047 19.1854 59.9738V58.2584C19.1854 58.2269 19.1749 58.2059 19.1537 58.1954C19.1326 58.1744 19.1061 58.1744 19.0744 58.1954L16.9491 58.9666C16.8857 58.9876 16.8381 59.0348 16.8064 59.1082C16.7852 59.1817 16.7747 59.3023 16.7747 59.4702C16.7747 59.701 16.8328 59.9266 16.9491 60.147C17.0654 60.3568 17.2135 60.5352 17.3932 60.6821C17.5835 60.8185 17.7739 60.8867 17.9642 60.8867Z" fill="white"/>
<path d="M24.2892 65.5767V65.3249L24.8602 65.136C25.0188 65.0836 25.1298 65.0154 25.1933 64.9314C25.2567 64.8475 25.2885 64.7216 25.2885 64.5537V56.1966C25.2885 55.9868 25.2514 55.8452 25.1774 55.7717C25.114 55.6878 25.0135 55.6248 24.8761 55.5828L24.2892 55.4412V55.2051C24.6382 55.1422 24.9448 55.0845 25.2091 55.032C25.4841 54.9795 25.7431 54.9166 25.9863 54.8431C26.2401 54.7697 26.5044 54.6805 26.7793 54.5756L26.9221 54.6858C26.8692 54.7907 26.8216 54.9218 26.7793 55.0792C26.7476 55.2366 26.7265 55.4097 26.7159 55.5986H26.7476L28.1274 54.8274C28.212 54.7854 28.3072 54.7487 28.4129 54.7172C28.5187 54.6753 28.6244 54.6543 28.7301 54.6543C29.5126 54.6543 30.1523 54.8169 30.6492 55.1422C31.1568 55.4674 31.5321 55.8924 31.7753 56.417C32.0291 56.9311 32.156 57.4872 32.156 58.0852C32.156 58.5259 32.0872 58.9666 31.9498 59.4073C31.8123 59.8479 31.6009 60.2466 31.3154 60.6034C31.0299 60.9601 30.6651 61.2486 30.221 61.469C29.7875 61.6788 29.2747 61.7838 28.6826 61.7838C28.3125 61.7838 27.9636 61.7365 27.6358 61.6421C27.308 61.5582 27.0384 61.4532 26.8269 61.3273V64.6324C26.8269 64.7583 26.8639 64.858 26.9379 64.9314C27.0119 65.0154 27.1282 65.0836 27.2869 65.136L27.953 65.3249V65.5767H24.2892ZM28.5715 61.2801C29.0156 61.2801 29.3804 61.1542 29.6659 60.9024C29.9514 60.6506 30.1576 60.3253 30.2845 59.9266C30.4219 59.5279 30.4906 59.0977 30.4906 58.6361C30.4906 58.122 30.4166 57.6393 30.2686 57.1882C30.1206 56.737 29.8827 56.3698 29.5549 56.0865C29.2377 55.7927 28.8253 55.6458 28.3178 55.6458C27.8525 55.6458 27.4825 55.7874 27.2076 56.0707C26.9432 56.3435 26.811 56.6635 26.811 57.0308V59.2184C26.811 59.5961 26.8903 59.9424 27.0489 60.2571C27.2181 60.5719 27.4349 60.8237 27.6992 61.0126C27.9741 61.1909 28.2649 61.2801 28.5715 61.2801Z" fill="white"/>
<path d="M35.2453 61.6421V61.3903L35.8162 61.2014C36.1017 61.107 36.2445 60.9129 36.2445 60.6191V56.1966C36.2445 55.9868 36.2075 55.8452 36.1335 55.7717C36.07 55.6878 35.9696 55.6248 35.8321 55.5828L35.2453 55.4412V55.2051C35.7634 55.1212 36.218 55.0373 36.6093 54.9533C37.0111 54.8694 37.4181 54.7435 37.8305 54.5756L37.9891 54.6858C37.9045 54.8431 37.8464 55.0477 37.8146 55.2996C37.7935 55.5409 37.7829 55.8189 37.7829 56.1337V60.6978C37.7829 60.8342 37.8252 60.9444 37.9098 61.0283C37.9944 61.1122 38.0843 61.17 38.1794 61.2014L38.7504 61.3903V61.6421H35.2453ZM36.9899 52.9545C36.6939 52.9545 36.4401 52.8549 36.2286 52.6555C36.0277 52.4457 35.9273 52.1939 35.9273 51.9001C35.9273 51.6063 36.0277 51.3597 36.2286 51.1604C36.4401 50.9505 36.6939 50.8456 36.9899 50.8456C37.286 50.8456 37.5344 50.9505 37.7353 51.1604C37.9468 51.3597 38.0526 51.6063 38.0526 51.9001C38.0526 52.1939 37.9468 52.4457 37.7353 52.6555C37.5344 52.8549 37.286 52.9545 36.9899 52.9545Z" fill="white"/>
<path d="M43.9916 61.768C43.0083 61.768 42.5166 61.1542 42.5166 59.9266V55.2681H41.4698V54.8904C42.1571 54.7749 42.6699 54.5336 43.0083 54.1664C43.3466 53.7992 43.5634 53.2746 43.6586 52.5926H44.0551V54.7802H46.0059L45.8473 55.2681H44.0551V59.8007C44.0551 60.1994 44.1185 60.4722 44.2454 60.6191C44.3723 60.766 44.5467 60.8394 44.7688 60.8394C44.9274 60.8394 45.1071 60.8027 45.308 60.7293C45.5089 60.6558 45.7151 60.5614 45.9266 60.446L46.1328 60.7922C45.731 61.107 45.3398 61.3483 44.9591 61.5162C44.589 61.6841 44.2665 61.768 43.9916 61.768Z" fill="white"/>
<path d="M51.1315 61.7523C50.7614 61.7523 50.4231 61.6474 50.1164 61.4375C49.8098 61.2277 49.5666 60.9549 49.3869 60.6191C49.2071 60.2834 49.1172 59.9214 49.1172 59.5332C49.1172 59.3548 49.1331 59.2289 49.1648 59.1554C49.2071 59.0715 49.2706 59.0138 49.3551 58.9823L52.5272 57.8177C52.7387 57.7442 52.8814 57.6603 52.9554 57.5659C53.0295 57.461 53.0665 57.3193 53.0665 57.1409V56.6688C53.0665 56.2071 52.9554 55.8294 52.7334 55.5356C52.5114 55.2418 52.1677 55.095 51.7025 55.095C51.3958 55.095 51.1474 55.1632 50.957 55.2996C50.7667 55.4255 50.6716 55.5828 50.6716 55.7717C50.6716 55.8452 50.6874 55.9134 50.7191 55.9763C50.7614 56.0393 50.809 56.1022 50.8619 56.1652C50.9359 56.2596 50.994 56.3593 51.0363 56.4642C51.0892 56.5691 51.1156 56.6793 51.1156 56.7947C51.1156 57.0255 51.0311 57.2091 50.8619 57.3455C50.7033 57.4819 50.4971 57.5501 50.2433 57.5501C49.979 57.5501 49.7728 57.4767 49.6248 57.3298C49.4767 57.1724 49.4027 56.9573 49.4027 56.6845C49.4027 56.3068 49.5349 55.9658 49.7992 55.6615C50.0636 55.3468 50.4019 55.1002 50.8143 54.9218C51.2267 54.733 51.6496 54.6385 52.0831 54.6385C52.5801 54.6385 53.0136 54.7277 53.3837 54.9061C53.7643 55.074 54.0604 55.3205 54.2719 55.6458C54.4939 55.9606 54.6049 56.3488 54.6049 56.8104V60.1784C54.6049 60.3883 54.6261 60.5667 54.6684 60.7135C54.7212 60.8604 54.8428 60.9339 55.0331 60.9339C55.2235 60.9339 55.4561 60.8867 55.731 60.7922V61.1227C55.5301 61.2486 55.2658 61.385 54.938 61.5319C54.6208 61.6683 54.3406 61.7365 54.0974 61.7365C53.8753 61.7365 53.6956 61.6893 53.5581 61.5949C53.4207 61.5005 53.3202 61.3536 53.2568 61.1542C53.1933 60.9549 53.1616 60.7188 53.1616 60.446V60.2257L53.4788 60.5247C53.2568 60.7135 53.0136 60.9024 52.7493 61.0913C52.4849 61.2801 52.2153 61.4375 51.9404 61.5634C51.6655 61.6893 51.3958 61.7523 51.1315 61.7523ZM51.8452 60.8867C52.0144 60.8867 52.1783 60.8499 52.3369 60.7765C52.5061 60.7031 52.6805 60.6034 52.8603 60.4775C52.9977 60.3725 53.0665 60.2047 53.0665 59.9738V58.2584C53.0665 58.2269 53.0559 58.2059 53.0347 58.1954C53.0136 58.1744 52.9872 58.1744 52.9554 58.1954L50.8302 58.9666C50.7667 58.9876 50.7191 59.0348 50.6874 59.1082C50.6663 59.1817 50.6557 59.3023 50.6557 59.4702C50.6557 59.701 50.7138 59.9266 50.8302 60.147C50.9465 60.3568 51.0945 60.5352 51.2742 60.6821C51.4646 60.8185 51.6549 60.8867 51.8452 60.8867Z" fill="white"/>
<path d="M58.4838 61.6421V61.3903L59.0547 61.2014C59.2028 61.1595 59.3085 61.0913 59.3719 60.9968C59.446 60.8919 59.483 60.766 59.483 60.6191V52.0889C59.483 51.8686 59.4512 51.7217 59.3878 51.6483C59.3244 51.5643 59.2239 51.5066 59.0865 51.4751L58.4838 51.3178V51.0974C59.0019 51.0135 59.4618 50.9295 59.8636 50.8456C60.2654 50.7617 60.6725 50.6305 61.0849 50.4521L61.2435 50.5623C61.1589 50.7302 61.1007 50.9348 61.069 51.1761C61.0373 51.4174 61.0214 51.6955 61.0214 52.0102V60.6978C61.0214 60.8447 61.0584 60.9601 61.1324 61.044C61.217 61.1175 61.3175 61.17 61.4338 61.2014L62.0048 61.3903V61.6421H58.4838Z" fill="white"/>
<path d="M77.4006 61.8152C76.6181 61.8152 75.8727 61.6893 75.1642 61.4375C74.4664 61.1857 73.8426 60.8237 73.2927 60.3516C72.7535 59.8689 72.3252 59.2918 72.008 58.6203C71.7014 57.9488 71.5481 57.1934 71.5481 56.354C71.5481 55.5566 71.7014 54.8274 72.008 54.1664C72.3252 53.5054 72.7482 52.9283 73.2769 52.4352C73.8161 51.942 74.44 51.5643 75.1484 51.302C75.8568 51.0397 76.6023 50.9086 77.3847 50.9086C77.924 50.9086 78.3733 50.9453 78.7328 51.0187C79.1029 51.0817 79.4148 51.1656 79.6686 51.2705C79.9329 51.365 80.1708 51.4489 80.3823 51.5224C80.5938 51.5958 80.8211 51.6325 81.0643 51.6325C81.1806 51.6325 81.2863 51.622 81.3815 51.601C81.4767 51.5801 81.5612 51.5643 81.6353 51.5538L81.6828 51.5853C81.6617 51.6797 81.6405 51.7952 81.6194 51.9316C81.5983 52.0575 81.5877 52.1781 81.5877 52.2935C81.5877 52.5873 81.6088 52.8811 81.6511 53.1749C81.6934 53.4687 81.7357 53.7205 81.778 53.9303C81.8203 54.1297 81.852 54.2451 81.8732 54.2766H81.4132C81.2123 53.731 80.9216 53.2431 80.5409 52.8129C80.1603 52.3722 79.7109 52.026 79.1928 51.7742C78.6747 51.5119 78.0931 51.3807 77.4481 51.3807C76.8666 51.3807 76.3432 51.5119 75.878 51.7742C75.4127 52.0365 75.0109 52.3985 74.6726 52.8601C74.3448 53.3218 74.0857 53.8516 73.8954 54.4497C73.7157 55.0477 73.6258 55.6773 73.6258 56.3383C73.6258 56.9678 73.6998 57.5816 73.8478 58.1797C73.9959 58.7777 74.2232 59.3181 74.5298 59.8007C74.8365 60.2729 75.2383 60.6506 75.7352 60.9339C76.2428 61.2067 76.8454 61.3431 77.5433 61.3431C77.8922 61.3431 78.2834 61.2854 78.717 61.17C79.1505 61.0545 79.5417 60.8394 79.8906 60.5247V58.2426C79.8906 57.9069 79.8378 57.6865 79.732 57.5816C79.6263 57.4767 79.3725 57.3875 78.9707 57.3141L78.0984 57.1409V56.8262H83.3958V57.1409L82.7455 57.2668C82.3543 57.3403 82.1005 57.4347 81.9842 57.5501C81.8785 57.6551 81.8256 57.8754 81.8256 58.2111V61.2014L81.7621 61.2329C81.6564 61.2119 81.556 61.1962 81.4608 61.1857C81.3656 61.1647 81.2388 61.1542 81.0802 61.1542C80.9004 61.1542 80.6942 61.1857 80.4616 61.2486C80.229 61.3011 79.9805 61.3693 79.7162 61.4532C79.399 61.5372 79.05 61.6159 78.6694 61.6893C78.2887 61.7733 77.8658 61.8152 77.4006 61.8152Z" fill="white"/>
<path d="M86.1365 61.6421V61.3903L86.7075 61.2014C86.8661 61.149 86.9771 61.0808 87.0406 60.9968C87.104 60.9129 87.1357 60.787 87.1357 60.6191V56.2124C87.1357 55.992 87.0987 55.8452 87.0247 55.7717C86.9612 55.6878 86.8608 55.6301 86.7233 55.5986L86.1365 55.4412V55.2051C86.4854 55.1527 86.7921 55.1002 87.0564 55.0477C87.3313 54.9953 87.5904 54.9323 87.8336 54.8589C88.0873 54.7749 88.3517 54.6805 88.6266 54.5756L88.7693 54.6858C88.7059 54.8117 88.653 54.9795 88.6107 55.1894C88.579 55.3992 88.5631 55.6196 88.5631 55.8504V56.0078L88.6742 56.3068V60.6978C88.6742 60.8237 88.7112 60.9286 88.7852 61.0126C88.8592 61.086 88.9755 61.149 89.1341 61.2014L89.8002 61.3903V61.6421H86.1365ZM88.6742 57.4242L88.3887 55.9448L90.2602 54.8274C90.3871 54.754 90.4981 54.7067 90.5933 54.6858C90.6884 54.6543 90.7836 54.6385 90.8787 54.6385C91.1114 54.6385 91.3228 54.733 91.5132 54.9218C91.7035 55.1002 91.7986 55.3363 91.7986 55.6301C91.7986 55.8609 91.7088 56.0707 91.529 56.2596C91.3493 56.4485 91.1114 56.5429 90.8153 56.5429C90.6356 56.5429 90.4822 56.5009 90.3554 56.417C90.2285 56.333 90.1174 56.2491 90.0223 56.1652C89.9588 56.0812 89.8901 56.0078 89.8161 55.9448C89.7421 55.8714 89.6575 55.8347 89.5623 55.8347C89.4778 55.8347 89.3614 55.8766 89.2134 55.9606C89.076 56.0445 88.9491 56.2019 88.8328 56.4327C88.727 56.6531 88.6742 56.9836 88.6742 57.4242Z" fill="white"/>
<path d="M97.8676 61.768C97.1803 61.768 96.5723 61.6159 96.0436 61.3116C95.515 60.9968 95.1079 60.5771 94.8224 60.0525C94.5369 59.5174 94.3942 58.9246 94.3942 58.2741C94.3942 57.5606 94.5369 56.9311 94.8224 56.3855C95.1079 55.8399 95.515 55.415 96.0436 55.1107C96.5723 54.8064 97.1803 54.6543 97.8676 54.6543C98.5654 54.6543 99.1734 54.8064 99.6915 55.1107C100.21 55.415 100.611 55.8294 100.897 56.354C101.193 56.8786 101.341 57.4767 101.341 58.1482C101.341 58.8512 101.193 59.4755 100.897 60.0211C100.611 60.5667 100.21 60.9968 99.6915 61.3116C99.1734 61.6159 98.5654 61.768 97.8676 61.768ZM97.8834 61.3116C98.4438 61.3116 98.8773 61.065 99.184 60.5719C99.4906 60.0683 99.6439 59.3181 99.6439 58.3213C99.6439 57.2826 99.4906 56.4904 99.184 55.9448C98.8773 55.3887 98.4333 55.1107 97.8517 55.1107C97.2913 55.1107 96.8578 55.3573 96.5512 55.8504C96.2445 56.3435 96.0912 57.0937 96.0912 58.101C96.0912 59.1292 96.2445 59.9214 96.5512 60.4775C96.8578 61.0336 97.3019 61.3116 97.8834 61.3116Z" fill="white"/>
<path d="M107.366 61.768C106.669 61.768 106.113 61.5896 105.701 61.2329C105.299 60.8762 105.098 60.3253 105.098 59.5804V55.9291C105.098 55.7192 105.061 55.5776 104.987 55.5042C104.924 55.4202 104.823 55.3573 104.686 55.3153L104.115 55.1264V54.8904C104.475 54.8799 104.792 54.8641 105.067 54.8431C105.352 54.8117 105.622 54.7749 105.876 54.733C106.129 54.6805 106.404 54.6281 106.7 54.5756L106.843 54.6858C106.78 54.8117 106.727 54.9795 106.684 55.1894C106.653 55.3992 106.637 55.6196 106.637 55.8504V59.1397C106.637 59.6224 106.758 59.9948 107.002 60.2571C107.255 60.5089 107.61 60.6349 108.064 60.6349C108.508 60.6349 108.857 60.488 109.111 60.1942C109.375 59.9004 109.508 59.5332 109.508 59.0925L109.825 60.6978H109.539C109.243 60.8237 108.915 60.9811 108.556 61.17C108.207 61.3483 107.895 61.5214 107.62 61.6893C107.525 61.7418 107.44 61.768 107.366 61.768ZM109.936 61.768L109.793 61.6893L109.634 60.5562L109.508 60.0997V55.9291C109.508 55.7192 109.476 55.5776 109.412 55.5042C109.349 55.4202 109.249 55.3573 109.111 55.3153L108.524 55.1264V54.8904C108.884 54.8799 109.201 54.8641 109.476 54.8431C109.761 54.8117 110.031 54.7749 110.285 54.733C110.538 54.6805 110.813 54.6281 111.109 54.5756L111.268 54.6858C111.194 54.8117 111.136 54.9795 111.094 55.1894C111.062 55.3992 111.046 55.6196 111.046 55.8504V60.2729C111.046 60.6086 111.146 60.8447 111.347 60.9811C111.548 61.107 111.86 61.1647 112.283 61.1542V61.5319C111.881 61.5424 111.49 61.5739 111.109 61.6264C110.739 61.6683 110.348 61.7156 109.936 61.768Z" fill="white"/>
<path d="M115.133 65.5767V65.3249L115.704 65.136C115.863 65.0836 115.974 65.0154 116.037 64.9314C116.101 64.8475 116.132 64.7216 116.132 64.5537V56.1966C116.132 55.9868 116.095 55.8452 116.021 55.7717C115.958 55.6878 115.857 55.6248 115.72 55.5828L115.133 55.4412V55.2051C115.482 55.1422 115.789 55.0845 116.053 55.032C116.328 54.9795 116.587 54.9166 116.83 54.8431C117.084 54.7697 117.348 54.6805 117.623 54.5756L117.766 54.6858C117.713 54.7907 117.665 54.9218 117.623 55.0792C117.591 55.2366 117.57 55.4097 117.56 55.5986H117.591L118.971 54.8274C119.056 54.7854 119.151 54.7487 119.257 54.7172C119.362 54.6753 119.468 54.6543 119.574 54.6543C120.356 54.6543 120.996 54.8169 121.493 55.1422C122.001 55.4674 122.376 55.8924 122.619 56.417C122.873 56.9311 123 57.4872 123 58.0852C123 58.5259 122.931 58.9666 122.794 59.4073C122.656 59.8479 122.445 60.2466 122.159 60.6034C121.874 60.9601 121.509 61.2486 121.065 61.469C120.631 61.6788 120.118 61.7838 119.526 61.7838C119.156 61.7838 118.807 61.7365 118.48 61.6421C118.152 61.5582 117.882 61.4532 117.671 61.3273V64.6324C117.671 64.7583 117.708 64.858 117.782 64.9314C117.856 65.0154 117.972 65.0836 118.131 65.136L118.797 65.3249V65.5767H115.133ZM119.415 61.2801C119.859 61.2801 120.224 61.1542 120.51 60.9024C120.795 60.6506 121.001 60.3253 121.128 59.9266C121.266 59.5279 121.334 59.0977 121.334 58.6361C121.334 58.122 121.26 57.6393 121.112 57.1882C120.964 56.737 120.726 56.3698 120.399 56.0865C120.081 55.7927 119.669 55.6458 119.162 55.6458C118.696 55.6458 118.326 55.7874 118.051 56.0707C117.787 56.3435 117.655 56.6635 117.655 57.0308V59.2184C117.655 59.5961 117.734 59.9424 117.893 60.2571C118.062 60.5719 118.279 60.8237 118.543 61.0126C118.818 61.1909 119.109 61.2801 119.415 61.2801Z" fill="white"/>
</svg>
