<svg width="350" height="187" viewBox="0 0 350 187" fill="none" xmlns="http://www.w3.org/2000/svg">
<path d="M315.485 110.297C310.259 109.914 304.622 108.614 300.148 106.758C299.136 106.338 298.42 102.522 297.91 102.33L296.863 97.2205C296.727 92.6677 296.554 87.6381 296.479 86.0436L296.342 83.1446H298.216H300.09L300.567 86.7108C302.347 100.032 309.451 106.737 321.785 106.737C329.976 106.737 335.054 103.694 337.611 97.2528C338.409 95.2432 338.532 94.2073 338.548 89.3375C338.567 83.7952 338.553 83.7055 337.248 81.0614C334.958 76.421 332.643 74.8824 321.107 70.3332C317.685 68.9839 313.621 67.2488 312.076 66.4774C302.002 61.4491 297.011 54.3154 297.031 44.9734C297.057 33.0222 303.775 24.396 315.487 21.2739C319.565 20.1871 329.499 20.3057 333.75 21.492C337.737 22.6043 343.008 24.6721 343.567 25.3432C343.806 25.6298 344.079 29.0125 344.201 33.2027C344.32 37.2486 344.483 41.5037 344.564 42.6583L344.711 44.7575H342.813H340.914L340.08 40.547C338.139 30.7423 333.582 25.5744 325.735 24.279C319.383 23.2304 311.685 25.6586 308.654 29.6671C306.349 32.7142 305.654 35.1008 305.654 39.9592C305.654 43.8218 305.749 44.3452 306.845 46.5007C308.269 49.301 310.293 51.1324 314.083 53.0495C316.737 54.3926 325.701 57.9531 326.427 57.9531C327.133 57.9531 335.186 61.929 337.266 63.3049C343.055 67.133 346.279 72.2696 347.428 79.4952C347.99 83.0269 348.015 84.2044 347.602 87.4769C346.665 94.8915 344.483 99.4851 339.878 103.739C333.974 109.191 326.783 111.125 315.485 110.297ZM173.047 109.757C160.269 107.333 154.228 100.672 152.546 87.1537C152.286 85.0662 152.124 72.5161 152.124 54.4648V25.1642H147.308H142.491V23.3648V21.5654H158.346H174.2V23.3528V25.1403L169.083 25.2522L163.965 25.3641L163.848 51.3553C163.695 85.1749 164.081 90.6216 167.055 96.6409C169.99 102.579 175.66 105.537 184.108 105.537C193.69 105.537 199.032 101.989 201.913 93.7091C203.756 88.4128 203.898 85.6147 203.9 54.4543L203.903 25.1642H199.086H194.27V23.3648V21.5654H205.91H217.55V23.3648V25.1642H213.15H208.751L208.626 57.0534C208.502 88.6066 208.491 88.9763 207.607 92.1415C204.995 101.493 199.83 106.732 190.858 109.133C186.667 110.255 177.384 110.58 173.047 109.757ZM222.844 107.456L222.969 105.737L227.785 105.674L232.602 105.61L232.704 65.3994L232.806 25.1888L227.887 25.0765L222.969 24.9642L222.845 23.2648L222.722 21.5654H242.436C254.903 21.5654 263.211 21.7288 265.037 22.01C272.007 23.0836 276.768 26.1322 279.328 31.1621C281.535 35.4992 282.215 40.9318 281.185 46.0058C280.08 51.4487 277.801 54.8037 273.233 57.7132C270.145 59.6797 268.156 60.4938 264.311 61.3647C262.545 61.7648 260.951 62.2181 260.769 62.372C260.586 62.5259 261.67 62.776 263.177 62.9276C278.682 64.4883 285.473 71.2552 285.473 85.1439C285.473 92.7905 283.651 97.6772 279.132 102.147C276.362 104.887 273 106.706 268.261 108.03C265.233 108.876 264.313 108.914 243.917 109.042L222.72 109.175L222.844 107.456ZM259.417 104.941C266.268 103.163 270.852 98.4588 272.374 91.6423C273.331 87.3548 273.004 79.4954 271.729 76.1469C270.179 72.0755 267.564 68.816 264.378 66.9814C261.192 65.1475 258.883 64.7508 251.394 64.7508H244.443V85.1439V105.537H250.78C255.103 105.537 257.849 105.347 259.417 104.941ZM259.394 60.2042C266.032 58.0686 269.903 51.5035 269.836 42.496C269.766 33.1018 264.972 26.3418 257.623 25.2752C256.445 25.1042 252.997 25.019 249.962 25.0858L244.443 25.2075V42.9132C244.443 52.6513 244.578 60.7588 244.744 60.9298C245.267 61.47 257.315 60.8734 259.394 60.2042Z" fill="#3561B6"/>
<path d="M58.7024 132.106C57.4385 131.743 57.3979 131.664 57.3979 129.575C57.3979 127.461 57.3726 127.414 56.0934 127.167C53.7068 126.706 49.5948 124.835 47.6737 123.336C40.5983 117.814 38.1734 109.179 41.3594 100.85C43.3965 95.524 49.017 90.7627 55.0958 89.2129C58.0326 88.4641 57.8933 87.6265 54.7889 87.3688L52.3806 87.1689V85.1695V83.1702L54.8893 83.0511L57.3979 82.9321V72.7546C57.3979 67.157 57.3138 62.5771 57.2109 62.5771C57.1081 62.5771 54.081 64.9613 50.4839 67.8754C46.8869 70.7894 43.4489 73.5593 42.8439 74.0308C42.2389 74.5023 41.7466 75.0422 41.7499 75.2305C41.7532 75.4187 42.3681 76.2925 43.1163 77.1722C44.4367 78.7246 44.4578 78.8037 43.8333 79.8599C43.4795 80.4584 42.6923 81.1209 42.0842 81.3321C41.0708 81.6841 40.8454 81.5598 39.384 79.844C38.2351 78.4951 37.666 78.0924 37.3472 78.403C37.0262 78.7158 37.2572 79.5842 38.1891 81.5679C39.3026 83.9385 39.4975 84.8457 39.656 88.3957C39.8065 91.7666 39.691 92.9732 39.0018 95.2275C37.1074 101.424 32.5716 105.942 26.3496 107.83C24.0888 108.516 22.9091 108.629 19.7268 108.464C15.2978 108.234 12.7428 107.382 9.13604 104.929C7.86916 104.068 6.69511 103.371 6.52705 103.38C6.35898 103.389 5.60735 103.919 4.85675 104.558C3.56544 105.659 3.43085 105.69 2.35489 105.135C1.24937 104.566 3.89864e-05 102.735 0 101.684C-6.49768e-06 101.398 0.667362 100.606 1.48305 99.9237L2.96611 98.6833L1.89638 96.226C-2.80407 85.4287 1.98344 73.6374 12.6731 69.6837C14.61 68.9673 15.8347 68.8123 19.2664 68.8493C24.2271 68.9028 26.6602 69.6567 30.8015 72.4232C34.0777 74.6119 34.8891 74.2461 32.6897 71.5722C31.2006 69.7617 31.1771 69.6841 31.8045 68.6439C32.159 68.0563 32.9363 67.3983 33.5318 67.1816C34.5217 66.8216 34.7565 66.9497 36.2726 68.6783L37.9308 70.5687L46.5605 63.5959C51.3069 59.7608 55.1903 56.4354 55.1903 56.206C55.1903 55.9767 51.3972 52.7403 46.7612 49.0141L38.3322 42.2391L37.2284 43.2861C35.8104 44.631 35.8349 45.4191 37.3287 46.5193C38.7989 47.6021 38.8086 47.7942 37.4732 49.3752L36.4136 50.6297L35.1462 49.4058C33.6308 47.9426 33.4659 47.9226 32.4693 49.0817C30.8426 50.9738 30.8305 51.2263 32.3186 52.2359C33.0843 52.7553 33.712 53.381 33.7135 53.6263C33.7167 54.1487 32.1778 56.18 31.7805 56.1777C31.4156 56.1757 23.9144 50.2027 23.7638 49.7943C23.6986 49.6175 25.55 48.4339 27.878 47.1642C30.206 45.8944 32.1107 44.7165 32.1107 44.5466C32.1107 44.3768 31.5887 43.8675 30.9507 43.415L29.7908 42.5921L25.8786 44.7993C23.7269 46.0132 21.9004 46.9406 21.8197 46.8602C21.7389 46.7798 22.2851 44.7921 23.0334 42.4432L24.3938 38.1725L23.3678 37.3684C22.8035 36.9262 22.17 36.6214 21.9601 36.6911C21.7501 36.7608 20.9613 38.7815 20.2072 41.1815C19.453 43.5815 18.7645 45.6164 18.6771 45.7035C18.5152 45.8648 10.436 39.4033 10.436 39.1124C10.436 38.73 12.2259 36.5859 12.5452 36.5859C12.7391 36.5859 13.5323 37.068 14.3078 37.6573L15.7177 38.7286L16.89 37.479C17.5348 36.7918 18.0623 36.1038 18.0623 35.9502C18.0623 35.7967 17.3933 35.0949 16.5756 34.3908L15.089 33.1105L16.0739 31.8714C17.2811 30.3525 17.4454 30.3362 18.9383 31.5876C19.5942 32.1374 20.2677 32.5873 20.435 32.5873C20.8226 32.5873 22.8849 30.2955 22.8607 29.8917C22.8508 29.7248 21.3236 28.4187 19.4671 26.9892C15.7104 24.0965 15.4147 23.4105 17.0765 21.4431C19.162 18.974 17.181 17.6916 40.9412 36.8918C53.7853 47.271 56.9445 49.7815 57.1613 49.7815C57.2914 49.7815 57.3979 45.193 57.3979 39.5849V29.3884H55.391H53.3841V31.3877V33.387H51.5778H49.7716V31.3877V29.3884H47.7647H45.7578V31.3877V33.387H43.9515H42.1453V27.9947V22.6023L44.0519 23.3517C45.1005 23.7638 47.1185 24.5709 48.5363 25.1452C49.9541 25.7196 51.2636 26.1895 51.4463 26.1895C51.629 26.1895 51.7774 25.5147 51.776 24.69L51.7734 23.1904L47.3046 21.4325L42.8357 19.6745L47.3071 17.8921L51.7785 16.1097V14.5518C51.7785 13.695 51.6918 12.9939 51.5859 12.9939C51.4799 12.9939 49.5383 13.7334 47.271 14.6372C45.0038 15.541 42.923 16.3699 42.647 16.4793C42.2605 16.6326 42.1453 15.4296 42.1453 11.2373V5.79633H43.9515H45.7578V7.79566V9.79497H47.7647H49.7716V7.79566V5.79633H51.5778H53.3841V7.79566V9.79497H55.391H57.3979V5.21194V0.6289L58.9446 0.213995C60.0353 -0.0785826 60.8637 -0.0715906 61.7543 0.2377L63.0173 0.67631V25.2717C63.0173 46.0709 63.1031 49.8342 63.5736 49.6544C64.0669 49.4658 75.0287 40.7072 93.9327 25.3971C97.3594 22.6219 100.386 20.2137 100.66 20.0456C101.424 19.575 102.653 20.1256 103.494 21.3148C105.163 23.6756 105.079 23.8934 101.365 26.8346C99.4801 28.3277 97.9377 29.7004 97.9377 29.885C97.9377 30.3975 99.6468 32.5873 100.047 32.5873C100.241 32.5873 101.04 32.101 101.822 31.5065L103.244 30.4258L104.382 31.8064L105.52 33.1871L103.938 34.5866L102.357 35.9861L103.612 37.3506C104.471 38.2848 105.022 38.6 105.359 38.3503C108.074 36.3422 107.945 36.3755 108.978 37.4219C109.501 37.9518 109.986 38.5927 110.055 38.8462C110.192 39.3519 102.381 45.8476 101.953 45.5839C101.807 45.4941 101.087 43.4329 100.352 41.0033C99.6167 38.5738 98.818 36.5919 98.5768 36.5992C98.3357 36.6066 97.7195 36.9603 97.2077 37.3853L96.2771 38.1581L97.6624 42.5702C98.4244 44.9969 98.9605 46.9824 98.8538 46.9824C98.7472 46.9824 96.8562 45.9739 94.6518 44.7413L90.6436 42.5002L89.4768 43.6139L88.31 44.7276L90.8159 46.1072C92.1941 46.866 94.1958 47.9772 95.2642 48.5765L97.2067 49.6662L93.0173 53.0736L88.8279 56.4809L87.7052 55.0792L86.5825 53.6775L88.1161 52.3948L89.6497 51.1121L88.5281 49.6471C87.9111 48.8413 87.3184 48.182 87.2108 48.182C87.1031 48.182 86.3324 48.7207 85.4979 49.3791L83.9807 50.5762L82.8926 49.1551L81.8045 47.7339L83.321 46.428L84.8375 45.1221L83.6701 43.6646C82.6722 42.4186 82.4024 42.2779 81.8114 42.6954C80.11 43.8972 65.0673 56.001 65.0469 56.1846C65.0344 56.2974 66.0628 57.1971 67.3321 58.1839C68.6015 59.1707 72.5813 62.3622 76.1763 65.2763C79.7712 68.1903 82.7855 70.5745 82.8746 70.5745C82.9637 70.5745 83.6203 69.7647 84.3337 68.775C85.8685 66.6461 86.7085 66.5239 88.3778 68.1868L89.5936 69.398L88.5378 70.686C87.1679 72.3572 86.4957 73.7042 86.8536 74.0608C87.0105 74.217 87.3693 74.1713 87.651 73.9592C90.3196 71.9495 93.554 70.1089 95.2613 69.6284C105.171 66.8394 114.181 70.5808 118.51 79.2823L120.214 82.71V87.7385C120.214 92.9333 120.184 93.0652 117.773 98.3806C117.669 98.609 118.313 99.3287 119.204 99.98C120.548 100.963 120.783 101.334 120.589 102.164C120.337 103.242 119.046 104.801 117.894 105.42C117.336 105.72 116.822 105.499 115.55 104.414L113.92 103.024L112.09 104.416C108.339 107.268 104.463 108.568 99.7599 108.552C94.1947 108.533 90.162 106.9 86.4982 103.184C83.6513 100.296 82.1282 97.6457 81.2968 94.1318C80.234 89.64 80.6321 85.6655 82.5869 81.2533C83.3485 79.5342 83.4965 78.8203 83.1607 78.4857C82.8248 78.1512 82.5103 78.2846 81.9414 79.0031C79.4859 82.1037 79.7564 81.9367 78.3581 81.2164C77.6604 80.8569 76.8907 80.1927 76.6477 79.7404C76.1876 78.8839 76.2871 78.6598 78.2538 76.1217L79.0678 75.0711L71.4513 68.9266C67.2622 65.547 63.6477 62.7198 63.419 62.6439C63.1378 62.5505 63.038 65.7831 63.1106 72.6381L63.218 82.7703L65.6166 82.893C68.2141 83.0257 68.6243 83.3362 68.6243 85.1695C68.6243 87.0028 68.2141 87.3133 65.6166 87.4461C62.1956 87.621 62.4433 88.4351 66.2504 89.529C71.3102 90.9828 74.9136 93.614 77.7805 97.9482C81.2436 103.184 81.6205 110.704 78.7182 116.657C76.7414 120.711 71.4651 125.132 67.103 126.39C62.9126 127.598 63.0173 127.513 63.0173 129.707C63.0173 131.556 62.9402 131.702 61.7532 132.115C60.3251 132.611 60.457 132.611 58.7024 132.106ZM57.4729 120.57C57.5877 118.938 57.7112 118.752 58.9031 118.413C59.704 118.186 60.7112 118.186 61.5121 118.413C62.7166 118.755 62.832 118.936 63.0173 120.77C63.2027 122.606 63.2942 122.749 64.2214 122.652C66.1752 122.449 70.1207 120.17 72.0183 118.149C74.9643 115.012 76.024 112.323 76.0335 107.962C76.0378 105.983 75.8047 103.684 75.5155 102.853C73.5479 97.2035 66.5532 95.6109 63.527 100.124C61.7241 102.812 62.7205 106.968 65.513 108.407C66.7418 109.04 69.7096 109.031 71.1453 108.39C71.7674 108.112 71.8477 108.328 71.8477 110.279C71.8477 112.39 71.7952 112.5 70.5837 112.921C67.6997 113.923 63.3567 112.953 61.6438 110.925C61.1032 110.285 60.5841 109.761 60.4903 109.761C60.3966 109.761 59.688 110.355 58.9157 111.08C56.6787 113.182 53.3668 113.866 50.1192 112.897L48.5675 112.434V110.255C48.5675 108.317 48.6452 108.114 49.2699 108.415C49.6562 108.602 51.0896 108.756 52.4551 108.758C54.6617 108.761 55.0758 108.63 56.1769 107.579C58.6417 105.225 58.64 101.241 56.1731 98.9457C52.4565 95.487 46.3553 98.3483 44.9432 104.212C43.4902 110.246 45.9206 116.83 50.8473 120.207C52.8429 121.575 56.6432 123.054 57.0715 122.63C57.2232 122.48 57.4038 121.553 57.4729 120.57ZM25.5175 103.387C29.8058 101.885 33.6211 98.2884 34.5429 94.8779C35.2924 92.105 34.7077 89.8507 32.7274 87.8779C31.1966 86.3529 30.8102 86.1692 29.1332 86.1692C25.9061 86.1692 23.4979 88.1223 23.0066 91.1379C22.6698 93.2059 24.1156 95.9005 26.0822 96.8698L27.6392 97.6372L25.9889 98.9008C25.0812 99.5958 24.0964 100.164 23.8004 100.164C23.5045 100.164 22.4631 99.4305 21.4862 98.5335C19.2863 96.5134 18.2603 94.052 18.5972 91.6031L18.8399 89.8396L16.8557 89.5677C13.8126 89.1508 10.8126 86.6602 9.63416 83.5725C9.25148 82.5698 9.34973 82.3511 10.728 81.1377C11.5608 80.4045 12.3491 79.7971 12.4797 79.788C12.6104 79.7788 12.9263 80.4666 13.1818 81.3162C13.8074 83.3963 16.3282 85.1695 18.6595 85.1695C21.8221 85.1695 24.4844 82.5026 24.4844 79.3345C24.4844 75.8626 21.5231 73.3706 17.4056 73.3774C9.97144 73.3898 3.53056 82.0202 4.85252 90.1978C5.30403 92.9908 6.18633 95.3661 6.77226 95.3661C6.98734 95.3661 7.71066 94.9073 8.37961 94.3465C9.54985 93.3656 9.64273 93.3511 10.8339 93.9647C11.5147 94.3155 12.3776 95.2412 12.7512 96.0218L13.4307 97.4412L11.9333 98.8082C11.1098 99.5601 10.436 100.244 10.436 100.328C10.436 100.777 14.8143 103.183 16.4085 103.611C19.2231 104.367 22.9831 104.274 25.5175 103.387ZM106.245 102.791C107.613 102.176 109.058 101.315 109.456 100.876C110.16 100.1 110.144 100.049 108.875 98.9927C107.364 97.7347 107.235 96.6993 108.405 95.2176C109.948 93.2631 110.672 93.1448 112.438 94.5584L114.014 95.8204L114.907 93.8938C115.641 92.3093 115.799 91.2573 115.799 87.9686C115.799 84.3907 115.68 83.728 114.666 81.6708C112.963 78.2162 109.99 75.1839 107.334 74.1941C102.6 72.4295 98.5522 73.5355 96.7898 77.0754C95.5404 79.5847 95.843 81.2834 97.9051 83.3376C100.537 85.9597 103.927 85.8771 106.347 83.1319C107.02 82.3679 107.571 81.2992 107.571 80.7571C107.571 79.4789 107.877 79.5141 109.687 81.0001C111.397 82.4042 111.477 82.8307 110.42 84.8856C109.074 87.501 106.262 89.3668 103.501 89.4765L101.886 89.5407L102.141 91.235C102.528 93.8012 101.666 96.0712 99.4731 98.2651C98.4289 99.3098 97.2844 100.164 96.9298 100.164C96.5752 100.164 95.5698 99.5918 94.6955 98.8919L93.106 97.6194L94.2173 97.1435C96.1691 96.3078 97.2314 94.7877 97.4504 92.517C97.7042 89.8855 96.7643 88.0045 94.6615 86.9358C91.5571 85.358 88.6207 86.2063 86.8669 89.1876C84.4541 93.2892 86.7624 98.8586 92.1881 102.026C95.0333 103.687 97.0357 104.168 100.547 104.032C103.015 103.937 104.333 103.65 106.245 102.791Z" fill="#3561B6"/>
<path d="M21.0471 175.896C18.5197 175.896 16.203 175.508 14.0969 174.732C12.0209 173.926 10.2156 172.821 8.68117 171.418C7.1768 170.015 6.0034 168.387 5.16095 166.536C4.34859 164.685 3.94241 162.685 3.94241 160.535C3.94241 158.236 4.37868 156.132 5.25121 154.221C6.12375 152.31 7.32724 150.653 8.8617 149.25C10.4262 147.847 12.2315 146.772 14.2774 146.025C16.3234 145.249 18.5197 144.861 20.8666 144.861C22.5514 144.861 23.9054 144.995 24.9283 145.264C25.9513 145.503 26.8238 145.757 27.5459 146.025C28.1176 146.264 28.6592 146.473 29.1707 146.652C29.6821 146.831 30.2538 146.921 30.8856 146.921C31.2166 146.921 31.5024 146.906 31.7431 146.876C31.9838 146.817 32.2546 146.757 32.5555 146.697L32.736 146.831C32.4652 147.876 32.39 149.071 32.5104 150.414C32.6608 151.728 32.9165 153.221 33.2776 154.893H32.1944C31.5626 153.37 30.7202 151.952 29.6671 150.638C28.614 149.295 27.3504 148.235 25.8761 147.458C24.4319 146.652 22.747 146.249 20.8214 146.249C18.8357 146.249 17.0003 146.846 15.3154 148.041C13.6606 149.205 12.3368 150.862 11.3439 153.012C10.351 155.131 9.85458 157.624 9.85458 160.491C9.85458 163.207 10.3209 165.626 11.2536 167.746C12.1863 169.865 13.4801 171.537 15.1349 172.761C16.8198 173.956 18.7604 174.553 20.9568 174.553C22.07 174.553 23.1833 174.374 24.2965 174.015C25.4097 173.657 26.4778 173.12 27.5008 172.403C28.5238 171.687 29.4565 170.776 30.2989 169.671C31.1715 168.537 31.8936 167.223 32.4652 165.73H33.6386C33.2776 167.163 32.9767 168.596 32.736 170.03C32.4953 171.463 32.3599 172.851 32.3298 174.194H31.9688C31.2467 174.194 30.4945 174.269 29.7122 174.418C28.93 174.568 28.1326 174.747 27.3203 174.956C26.4177 175.165 25.4549 175.374 24.4319 175.583C23.4089 175.792 22.2807 175.896 21.0471 175.896Z" fill="#363636"/>
<path d="M49.0872 175.717C48.0341 175.717 47.0713 175.419 46.1988 174.821C45.3263 174.224 44.6343 173.448 44.1228 172.493C43.6113 171.537 43.3556 170.507 43.3556 169.403C43.3556 168.895 43.4007 168.537 43.4909 168.328C43.6113 168.089 43.7918 167.925 44.0325 167.835L53.0587 164.521C53.6605 164.312 54.0667 164.073 54.2773 163.805C54.4879 163.506 54.5932 163.103 54.5932 162.595V161.252C54.5932 159.938 54.2773 158.863 53.6454 158.027C53.0136 157.191 52.0358 156.774 50.7119 156.774C49.8394 156.774 49.1323 156.968 48.5908 157.356C48.0492 157.714 47.7784 158.162 47.7784 158.699C47.7784 158.908 47.8235 159.102 47.9138 159.281C48.0341 159.461 48.1695 159.64 48.32 159.819C48.5306 160.088 48.6961 160.371 48.8164 160.67C48.9668 160.968 49.0421 161.282 49.0421 161.61C49.0421 162.267 48.8014 162.789 48.32 163.178C47.8687 163.566 47.282 163.76 46.5599 163.76C45.8077 163.76 45.221 163.551 44.7998 163.133C44.3785 162.685 44.1679 162.073 44.1679 161.297C44.1679 160.222 44.544 159.252 45.2962 158.386C46.0484 157.49 47.0112 156.788 48.1846 156.281C49.358 155.743 50.5615 155.475 51.7951 155.475C53.2092 155.475 54.4427 155.729 55.4958 156.236C56.5789 156.714 57.4214 157.415 58.0231 158.341C58.655 159.237 58.9709 160.341 58.9709 161.655V171.239C58.9709 171.836 59.0311 172.343 59.1514 172.761C59.3019 173.179 59.6479 173.388 60.1894 173.388C60.731 173.388 61.3929 173.254 62.1752 172.985V173.926C61.6035 174.284 60.8514 174.672 59.9186 175.09C59.016 175.478 58.2187 175.672 57.5267 175.672C56.8949 175.672 56.3834 175.538 55.9922 175.269C55.6011 175.001 55.3153 174.583 55.1348 174.015C54.9542 173.448 54.864 172.776 54.864 172V171.373L55.7666 172.224C55.1348 172.761 54.4427 173.299 53.6906 173.836C52.9384 174.374 52.1712 174.821 51.3889 175.18C50.6066 175.538 49.8394 175.717 49.0872 175.717ZM51.1181 173.254C51.5995 173.254 52.0658 173.149 52.5172 172.94C52.9986 172.731 53.495 172.448 54.0065 172.09C54.3976 171.791 54.5932 171.313 54.5932 170.657V165.775C54.5932 165.685 54.5631 165.626 54.5029 165.596C54.4427 165.536 54.3675 165.536 54.2773 165.596L48.2297 167.79C48.0492 167.85 47.9138 167.984 47.8235 168.193C47.7634 168.402 47.7333 168.746 47.7333 169.223C47.7333 169.88 47.8987 170.522 48.2297 171.149C48.5607 171.746 48.9819 172.254 49.4934 172.672C50.035 173.06 50.5765 173.254 51.1181 173.254Z" fill="#363636"/>
<path d="M69.1162 186.6V185.883L70.7409 185.346C71.1922 185.196 71.5082 185.002 71.6887 184.763C71.8692 184.525 71.9595 184.166 71.9595 183.689V159.908C71.9595 159.311 71.8542 158.908 71.6435 158.699C71.463 158.46 71.1772 158.281 70.7861 158.162L69.1162 157.759V157.087C70.1091 156.908 70.9816 156.744 71.7338 156.594C72.5161 156.445 73.2532 156.266 73.9452 156.057C74.6673 155.848 75.4195 155.594 76.2018 155.296L76.608 155.609C76.4575 155.908 76.3221 156.281 76.2018 156.729C76.1115 157.177 76.0513 157.669 76.0213 158.207H76.1115L80.0379 156.012C80.2786 155.893 80.5494 155.788 80.8503 155.699C81.1511 155.579 81.452 155.52 81.7529 155.52C83.9794 155.52 85.7997 155.982 87.2138 156.908C88.6579 157.833 89.726 159.043 90.4181 160.535C91.1402 161.998 91.5012 163.581 91.5012 165.282C91.5012 166.536 91.3056 167.79 90.9145 169.044C90.5234 170.298 89.9216 171.433 89.1093 172.448C88.2969 173.463 87.2589 174.284 85.9952 174.911C84.7616 175.508 83.3024 175.807 81.6175 175.807C80.5644 175.807 79.5716 175.672 78.6389 175.404C77.7061 175.165 76.9389 174.866 76.3372 174.508V183.913C76.3372 184.271 76.4425 184.554 76.6531 184.763C76.8637 185.002 77.1947 185.196 77.646 185.346L79.5415 185.883V186.6H69.1162ZM81.3016 174.374C82.5653 174.374 83.6033 174.015 84.4156 173.299C85.228 172.582 85.8147 171.657 86.1757 170.522C86.5669 169.388 86.7624 168.164 86.7624 166.85C86.7624 165.387 86.5518 164.014 86.1306 162.73C85.7094 161.446 85.0324 160.401 84.0997 159.595C83.1971 158.759 82.0237 158.341 80.5795 158.341C79.2556 158.341 78.2026 158.744 77.4203 159.55C76.6681 160.326 76.292 161.237 76.292 162.282V168.507C76.292 169.582 76.5177 170.567 76.969 171.463C77.4504 172.358 78.0672 173.075 78.8194 173.612C79.6017 174.12 80.4291 174.374 81.3016 174.374Z" fill="#363636"/>
<path d="M100.292 175.404V174.687L101.917 174.15C102.729 173.881 103.135 173.329 103.135 172.493V159.908C103.135 159.311 103.03 158.908 102.819 158.699C102.639 158.46 102.353 158.281 101.962 158.162L100.292 157.759V157.087C101.766 156.848 103.06 156.609 104.173 156.37C105.316 156.132 106.475 155.773 107.648 155.296L108.1 155.609C107.859 156.057 107.693 156.639 107.603 157.356C107.543 158.042 107.513 158.834 107.513 159.729V172.717C107.513 173.105 107.633 173.418 107.874 173.657C108.115 173.896 108.37 174.06 108.641 174.15L110.266 174.687V175.404H100.292ZM105.256 150.683C104.414 150.683 103.692 150.399 103.09 149.832C102.518 149.235 102.233 148.518 102.233 147.682C102.233 146.846 102.518 146.145 103.09 145.578C103.692 144.98 104.414 144.682 105.256 144.682C106.099 144.682 106.806 144.98 107.377 145.578C107.979 146.145 108.28 146.846 108.28 147.682C108.28 148.518 107.979 149.235 107.377 149.832C106.806 150.399 106.099 150.683 105.256 150.683Z" fill="#363636"/>
<path d="M125.18 175.762C122.382 175.762 120.983 174.015 120.983 170.522V157.266H118.004V156.191C119.96 155.863 121.419 155.176 122.382 154.131C123.345 153.086 123.961 151.593 124.232 149.653H125.36V155.878H130.912L130.46 157.266H125.36V170.164C125.36 171.298 125.541 172.075 125.902 172.493C126.263 172.911 126.759 173.12 127.391 173.12C127.843 173.12 128.354 173.015 128.926 172.806C129.497 172.597 130.084 172.328 130.686 172L131.273 172.985C130.129 173.881 129.016 174.568 127.933 175.045C126.88 175.523 125.962 175.762 125.18 175.762Z" fill="#363636"/>
<path d="M145.497 175.717C144.444 175.717 143.481 175.419 142.608 174.821C141.736 174.224 141.044 173.448 140.532 172.493C140.021 171.537 139.765 170.507 139.765 169.403C139.765 168.895 139.81 168.537 139.9 168.328C140.021 168.089 140.201 167.925 140.442 167.835L149.468 164.521C150.07 164.312 150.476 164.073 150.687 163.805C150.897 163.506 151.003 163.103 151.003 162.595V161.252C151.003 159.938 150.687 158.863 150.055 158.027C149.423 157.191 148.445 156.774 147.121 156.774C146.249 156.774 145.542 156.968 145 157.356C144.459 157.714 144.188 158.162 144.188 158.699C144.188 158.908 144.233 159.102 144.323 159.281C144.444 159.461 144.579 159.64 144.729 159.819C144.94 160.088 145.105 160.371 145.226 160.67C145.376 160.968 145.451 161.282 145.451 161.61C145.451 162.267 145.211 162.789 144.729 163.178C144.278 163.566 143.691 163.76 142.969 163.76C142.217 163.76 141.63 163.551 141.209 163.133C140.788 162.685 140.577 162.073 140.577 161.297C140.577 160.222 140.953 159.252 141.706 158.386C142.458 157.49 143.421 156.788 144.594 156.281C145.767 155.743 146.971 155.475 148.204 155.475C149.619 155.475 150.852 155.729 151.905 156.236C152.988 156.714 153.831 157.415 154.433 158.341C155.064 159.237 155.38 160.341 155.38 161.655V171.239C155.38 171.836 155.44 172.343 155.561 172.761C155.711 173.179 156.057 173.388 156.599 173.388C157.14 173.388 157.802 173.254 158.585 172.985V173.926C158.013 174.284 157.261 174.672 156.328 175.09C155.425 175.478 154.628 175.672 153.936 175.672C153.304 175.672 152.793 175.538 152.402 175.269C152.011 175.001 151.725 174.583 151.544 174.015C151.364 173.448 151.273 172.776 151.273 172V171.373L152.176 172.224C151.544 172.761 150.852 173.299 150.1 173.836C149.348 174.374 148.581 174.821 147.798 175.18C147.016 175.538 146.249 175.717 145.497 175.717ZM147.528 173.254C148.009 173.254 148.475 173.149 148.927 172.94C149.408 172.731 149.904 172.448 150.416 172.09C150.807 171.791 151.003 171.313 151.003 170.657V165.775C151.003 165.685 150.973 165.626 150.912 165.596C150.852 165.536 150.777 165.536 150.687 165.596L144.639 167.79C144.459 167.85 144.323 167.984 144.233 168.193C144.173 168.402 144.143 168.746 144.143 169.223C144.143 169.88 144.308 170.522 144.639 171.149C144.97 171.746 145.391 172.254 145.903 172.672C146.444 173.06 146.986 173.254 147.528 173.254Z" fill="#363636"/>
<path d="M166.418 175.404V174.687L168.042 174.15C168.464 174.03 168.764 173.836 168.945 173.567C169.156 173.269 169.261 172.911 169.261 172.493V148.22C169.261 147.593 169.171 147.175 168.99 146.966C168.81 146.727 168.524 146.563 168.133 146.473L166.418 146.025V145.398C167.892 145.16 169.201 144.921 170.344 144.682C171.487 144.443 172.646 144.07 173.819 143.562L174.27 143.876C174.03 144.353 173.864 144.936 173.774 145.622C173.684 146.309 173.639 147.1 173.639 147.996V172.717C173.639 173.135 173.744 173.463 173.955 173.702C174.195 173.911 174.481 174.06 174.812 174.15L176.437 174.687V175.404H166.418Z" fill="#363636"/>
<path d="M220.246 175.896C218.019 175.896 215.898 175.538 213.882 174.821C211.897 174.105 210.122 173.075 208.557 171.731C207.023 170.358 205.804 168.716 204.901 166.805C204.029 164.894 203.593 162.745 203.593 160.356C203.593 158.087 204.029 156.012 204.901 154.131C205.804 152.25 207.008 150.608 208.512 149.205C210.046 147.802 211.821 146.727 213.837 145.981C215.853 145.234 217.974 144.861 220.201 144.861C221.735 144.861 223.014 144.965 224.037 145.174C225.09 145.354 225.978 145.592 226.7 145.891C227.452 146.16 228.129 146.399 228.731 146.608C229.332 146.817 229.979 146.921 230.671 146.921C231.002 146.921 231.303 146.891 231.574 146.831C231.845 146.772 232.085 146.727 232.296 146.697L232.431 146.787C232.371 147.055 232.311 147.384 232.251 147.772C232.191 148.13 232.161 148.474 232.161 148.802C232.161 149.638 232.221 150.474 232.341 151.31C232.461 152.146 232.582 152.862 232.702 153.459C232.822 154.027 232.913 154.355 232.973 154.445H231.664C231.092 152.892 230.265 151.504 229.182 150.28C228.099 149.026 226.82 148.041 225.346 147.324C223.871 146.578 222.217 146.205 220.381 146.205C218.727 146.205 217.237 146.578 215.913 147.324C214.59 148.07 213.446 149.101 212.483 150.414C211.551 151.728 210.814 153.236 210.272 154.937C209.76 156.639 209.505 158.431 209.505 160.311C209.505 162.103 209.715 163.849 210.137 165.551C210.558 167.253 211.205 168.791 212.077 170.164C212.95 171.507 214.093 172.582 215.507 173.388C216.951 174.165 218.666 174.553 220.652 174.553C221.645 174.553 222.758 174.388 223.992 174.06C225.225 173.732 226.339 173.12 227.332 172.224V165.73C227.332 164.775 227.181 164.148 226.88 163.849C226.579 163.551 225.857 163.297 224.714 163.088L222.232 162.595V161.7H237.305V162.595L235.455 162.954C234.342 163.163 233.62 163.431 233.289 163.76C232.988 164.058 232.838 164.685 232.838 165.641V174.15L232.657 174.239C232.356 174.18 232.07 174.135 231.799 174.105C231.529 174.045 231.168 174.015 230.716 174.015C230.205 174.015 229.618 174.105 228.956 174.284C228.294 174.433 227.587 174.627 226.835 174.866C225.932 175.105 224.94 175.329 223.856 175.538C222.773 175.777 221.57 175.896 220.246 175.896Z" fill="#363636"/>
<path d="M245.104 175.404V174.687L246.729 174.15C247.18 174 247.496 173.806 247.677 173.567C247.857 173.329 247.948 172.97 247.948 172.493V159.953C247.948 159.326 247.842 158.908 247.632 158.699C247.451 158.46 247.165 158.296 246.774 158.207L245.104 157.759V157.087C246.097 156.938 246.97 156.788 247.722 156.639C248.504 156.49 249.241 156.311 249.933 156.102C250.655 155.863 251.408 155.594 252.19 155.296L252.596 155.609C252.416 155.967 252.265 156.445 252.145 157.042C252.055 157.639 252.009 158.266 252.009 158.923V159.371L252.325 160.222V172.717C252.325 173.075 252.431 173.373 252.641 173.612C252.852 173.821 253.183 174 253.634 174.15L255.53 174.687V175.404H245.104ZM252.325 163.402L251.513 159.192L256.838 156.012C257.199 155.803 257.515 155.669 257.786 155.609C258.057 155.52 258.328 155.475 258.599 155.475C259.26 155.475 259.862 155.743 260.404 156.281C260.945 156.788 261.216 157.46 261.216 158.296C261.216 158.953 260.96 159.55 260.449 160.088C259.937 160.625 259.26 160.894 258.418 160.894C257.906 160.894 257.47 160.774 257.109 160.535C256.748 160.296 256.432 160.058 256.161 159.819C255.981 159.58 255.785 159.371 255.575 159.192C255.364 158.983 255.123 158.878 254.853 158.878C254.612 158.878 254.281 158.998 253.86 159.237C253.469 159.475 253.108 159.923 252.777 160.58C252.476 161.207 252.325 162.148 252.325 163.402Z" fill="#363636"/>
<path d="M278.485 175.762C276.53 175.762 274.8 175.329 273.295 174.463C271.791 173.567 270.633 172.373 269.82 170.88C269.008 169.358 268.602 167.671 268.602 165.82C268.602 163.79 269.008 161.998 269.82 160.446C270.633 158.893 271.791 157.684 273.295 156.818C274.8 155.952 276.53 155.52 278.485 155.52C280.471 155.52 282.201 155.952 283.676 156.818C285.15 157.684 286.293 158.863 287.105 160.356C287.948 161.849 288.369 163.551 288.369 165.462C288.369 167.462 287.948 169.238 287.105 170.791C286.293 172.343 285.15 173.567 283.676 174.463C282.201 175.329 280.471 175.762 278.485 175.762ZM278.531 174.463C280.125 174.463 281.359 173.762 282.231 172.358C283.104 170.925 283.54 168.791 283.54 165.954C283.54 162.998 283.104 160.744 282.231 159.192C281.359 157.609 280.095 156.818 278.44 156.818C276.846 156.818 275.612 157.52 274.74 158.923C273.867 160.326 273.431 162.461 273.431 165.327C273.431 168.253 273.867 170.507 274.74 172.09C275.612 173.672 276.876 174.463 278.531 174.463Z" fill="#363636"/>
<path d="M305.515 175.762C303.529 175.762 301.949 175.254 300.776 174.239C299.633 173.224 299.061 171.657 299.061 169.537V159.147C299.061 158.55 298.956 158.147 298.745 157.938C298.565 157.699 298.279 157.52 297.888 157.4L296.263 156.863V156.191C297.286 156.161 298.188 156.117 298.971 156.057C299.783 155.967 300.55 155.863 301.272 155.743C301.994 155.594 302.777 155.445 303.619 155.296L304.025 155.609C303.845 155.967 303.694 156.445 303.574 157.042C303.484 157.639 303.439 158.266 303.439 158.923V168.283C303.439 169.656 303.785 170.716 304.477 171.463C305.199 172.179 306.207 172.537 307.5 172.537C308.764 172.537 309.757 172.119 310.479 171.283C311.231 170.448 311.607 169.403 311.607 168.149L312.51 172.717H311.698C310.855 173.075 309.922 173.523 308.9 174.06C307.907 174.568 307.019 175.06 306.237 175.538C305.966 175.687 305.725 175.762 305.515 175.762ZM312.826 175.762L312.42 175.538L311.968 172.314L311.607 171.015V159.147C311.607 158.55 311.517 158.147 311.337 157.938C311.156 157.699 310.87 157.52 310.479 157.4L308.809 156.863V156.191C309.832 156.161 310.735 156.117 311.517 156.057C312.329 155.967 313.097 155.863 313.819 155.743C314.541 155.594 315.323 155.445 316.166 155.296L316.617 155.609C316.406 155.967 316.241 156.445 316.12 157.042C316.03 157.639 315.985 158.266 315.985 158.923V171.507C315.985 172.463 316.271 173.135 316.843 173.523C317.414 173.881 318.302 174.045 319.505 174.015V175.09C318.362 175.12 317.249 175.21 316.166 175.359C315.113 175.478 313.999 175.613 312.826 175.762Z" fill="#363636"/>
<path d="M327.615 186.6V185.883L329.24 185.346C329.691 185.196 330.007 185.002 330.187 184.763C330.368 184.525 330.458 184.166 330.458 183.689V159.908C330.458 159.311 330.353 158.908 330.142 158.699C329.962 158.46 329.676 158.281 329.285 158.162L327.615 157.759V157.087C328.608 156.908 329.48 156.744 330.232 156.594C331.015 156.445 331.752 156.266 332.444 156.057C333.166 155.848 333.918 155.594 334.7 155.296L335.107 155.609C334.956 155.908 334.821 156.281 334.7 156.729C334.61 157.177 334.55 157.669 334.52 158.207H334.61L338.536 156.012C338.777 155.893 339.048 155.788 339.349 155.699C339.65 155.579 339.951 155.52 340.251 155.52C342.478 155.52 344.298 155.982 345.712 156.908C347.157 157.833 348.225 159.043 348.917 160.535C349.639 161.998 350 163.581 350 165.282C350 166.536 349.804 167.79 349.413 169.044C349.022 170.298 348.42 171.433 347.608 172.448C346.796 173.463 345.757 174.284 344.494 174.911C343.26 175.508 341.801 175.807 340.116 175.807C339.063 175.807 338.07 175.672 337.137 175.404C336.205 175.165 335.438 174.866 334.836 174.508V183.913C334.836 184.271 334.941 184.554 335.152 184.763C335.362 185.002 335.693 185.196 336.145 185.346L338.04 185.883V186.6H327.615ZM339.8 174.374C341.064 174.374 342.102 174.015 342.914 173.299C343.727 172.582 344.313 171.657 344.674 170.522C345.065 169.388 345.261 168.164 345.261 166.85C345.261 165.387 345.05 164.014 344.629 162.73C344.208 161.446 343.531 160.401 342.598 159.595C341.696 158.759 340.522 158.341 339.078 158.341C337.754 158.341 336.701 158.744 335.919 159.55C335.167 160.326 334.791 161.237 334.791 162.282V168.507C334.791 169.582 335.016 170.567 335.468 171.463C335.949 172.358 336.566 173.075 337.318 173.612C338.1 174.12 338.928 174.374 339.8 174.374Z" fill="#363636"/>
</svg>
