<svg width="24" height="22" viewBox="0 0 24 22" fill="none" xmlns="http://www.w3.org/2000/svg">
<path d="M23.7994 9.9C23.532 9.625 23.532 9.35 23.2646 9.075L15.2423 0.825C14.1727 -0.275 12.5682 -0.275 11.4986 0.825C10.429 1.925 10.429 3.575 11.4986 4.675L14.9749 8.25H2.67409C1.06964 8.25 0 9.35 0 11C0 12.65 1.06964 13.75 2.67409 13.75H14.9749L11.4986 17.325C10.429 18.425 10.429 20.075 11.4986 21.175C12.0334 21.725 12.8357 22 13.3705 22C13.9053 22 14.7075 21.725 15.2423 21.175L23.2646 12.925C23.532 12.65 23.7994 12.375 23.7994 12.1C24.0669 11.275 24.0669 10.725 23.7994 9.9Z" fill="white"/>
</svg>
