<?xml version="1.0" encoding="utf-8"?>
<!-- Generator: Adobe Illustrator 25.4.1, SVG Export Plug-In . SVG Version: 6.00 Build 0)  -->
<svg version="1.1" id="Слой_1" xmlns="http://www.w3.org/2000/svg" xmlns:xlink="http://www.w3.org/1999/xlink" x="0px" y="0px"
	 viewBox="0 0 29 32" style="enable-background:new 0 0 29 32;" xml:space="preserve">
<style type="text/css">
	.st0{fill:#3561B6;}
</style>
<g>
	<path class="st0" d="M21.2,17.1L21.2,17.1c-0.5,0-0.9,0.4-0.9,0.9s0.4,0.9,0.9,0.9s0.9-0.4,0.9-0.9S21.7,17.1,21.2,17.1z"/>
	<path class="st0" d="M14.5,17.1L14.5,17.1c-0.5,0-0.9,0.4-0.9,0.9s0.4,0.9,0.9,0.9c0.5,0,0.9-0.4,0.9-0.9S15,17.1,14.5,17.1z"/>
	<path class="st0" d="M7.8,17.1L7.8,17.1c-0.5,0-0.9,0.4-0.9,0.9s0.4,0.9,0.9,0.9s0.9-0.4,0.9-0.9S8.2,17.1,7.8,17.1z"/>
	<path class="st0" d="M21.2,23L21.2,23c-0.5,0-0.9,0.4-0.9,0.9s0.4,0.9,0.9,0.9s0.9-0.4,0.9-0.9S21.7,23,21.2,23z"/>
	<path class="st0" d="M14.5,23L14.5,23c-0.5,0-0.9,0.4-0.9,0.9s0.4,0.9,0.9,0.9c0.5,0,0.9-0.4,0.9-0.9S15,23,14.5,23z"/>
	<path class="st0" d="M7.8,23L7.8,23c-0.5,0-0.9,0.4-0.9,0.9s0.4,0.9,0.9,0.9s0.9-0.4,0.9-0.9S8.2,23,7.8,23z"/>
	<path class="st0" d="M26.9,4.6c-1.3-1.3-3.2-2-5.4-2.1V0.9c0-0.5-0.4-0.9-0.9-0.9s-0.9,0.4-0.9,0.9v1.5H9.2V0.9
		C9.2,0.4,8.8,0,8.4,0C7.9,0,7.5,0.4,7.5,0.9v1.6C2.8,2.6,0,5.5,0,10.3V24c0,5,3,8,8.1,8h12.8c5.1,0,8.1-3,8.1-7.9V10.3
		C29,7.9,28.3,5.9,26.9,4.6z M7.5,4.1v1.7c0,0.5,0.4,0.9,0.9,0.9c0.5,0,0.9-0.4,0.9-0.9V4.1h10.5v1.7c0,0.5,0.4,0.9,0.9,0.9
		s0.9-0.4,0.9-0.9V4.1c1.8,0.1,3.2,0.6,4.2,1.6c1.1,1.1,1.6,2.6,1.6,4.5v0.9H1.7v-0.9C1.7,6.5,3.8,4.3,7.5,4.1z M20.9,30.3H8.1
		c-4.1,0-6.4-2.2-6.4-6.3V12.9h25.6v11.2C27.3,28.1,25,30.3,20.9,30.3z"/>
</g>
</svg>
