<svg width="14" height="14" viewBox="0 0 14 14" fill="none" xmlns="http://www.w3.org/2000/svg">
<path d="M8.35757 7.00001L13.0891 2.23334C13.2963 2.02412 13.4127 1.74034 13.4127 1.44445C13.4127 1.14856 13.2963 0.864791 13.0891 0.655565C12.8819 0.446339 12.6008 0.328796 12.3078 0.328796C12.0148 0.328796 11.7338 0.446339 11.5266 0.655565L6.80608 5.43334L2.08559 0.655565C1.87839 0.446339 1.59737 0.328796 1.30434 0.328796C1.01132 0.328796 0.730297 0.446339 0.523097 0.655565C0.315898 0.864791 0.199494 1.14856 0.199494 1.44445C0.199494 1.74034 0.315898 2.02412 0.523097 2.23334L5.25459 7.00001L0.523097 11.7667C0.419964 11.87 0.338104 11.9929 0.282241 12.1283C0.226378 12.2637 0.197617 12.4089 0.197617 12.5556C0.197617 12.7022 0.226378 12.8475 0.282241 12.9829C0.338104 13.1183 0.419964 13.2412 0.523097 13.3445C0.625389 13.4486 0.747088 13.5313 0.881176 13.5877C1.01526 13.6441 1.15908 13.6731 1.30434 13.6731C1.4496 13.6731 1.59342 13.6441 1.72751 13.5877C1.8616 13.5313 1.9833 13.4486 2.08559 13.3445L6.80608 8.56668L11.5266 13.3445C11.6289 13.4486 11.7506 13.5313 11.8846 13.5877C12.0187 13.6441 12.1626 13.6731 12.3078 13.6731C12.4531 13.6731 12.5969 13.6441 12.731 13.5877C12.8651 13.5313 12.9868 13.4486 13.0891 13.3445C13.1922 13.2412 13.2741 13.1183 13.3299 12.9829C13.3858 12.8475 13.4145 12.7022 13.4145 12.5556C13.4145 12.4089 13.3858 12.2637 13.3299 12.1283C13.2741 11.9929 13.1922 11.87 13.0891 11.7667L8.35757 7.00001Z" fill="white"/>
</svg>
