<svg width="32" height="32" viewBox="0 0 32 32" fill="none" xmlns="http://www.w3.org/2000/svg">
<path d="M28 10H12C11.4696 10 10.9609 10.2107 10.5858 10.5858C10.2107 10.9609 10 11.4696 10 12V28C10 28.5304 10.2107 29.0391 10.5858 29.4142C10.9609 29.7893 11.4696 30 12 30H28C28.5304 30 29.0391 29.7893 29.4142 29.4142C29.7893 29.0391 30 28.5304 30 28V12C30 11.4696 29.7893 10.9609 29.4142 10.5858C29.0391 10.2107 28.5304 10 28 10ZM12 28V12H28V28H12Z" fill="#3561B6"/>
<path d="M7 20H4V4H20V7C20 7.26522 20.1054 7.51957 20.2929 7.70711C20.4804 7.89464 20.7348 8 21 8C21.2652 8 21.5196 7.89464 21.7071 7.70711C21.8946 7.51957 22 7.26522 22 7V4C22 3.46957 21.7893 2.96086 21.4142 2.58579C21.0391 2.21071 20.5304 2 20 2H4C3.46957 2 2.96086 2.21071 2.58579 2.58579C2.21071 2.96086 2 3.46957 2 4V20C2 20.5304 2.21071 21.0391 2.58579 21.4142C2.96086 21.7893 3.46957 22 4 22H7C7.26522 22 7.51957 21.8946 7.70711 21.7071C7.89464 21.5196 8 21.2652 8 21C8 20.7348 7.89464 20.4804 7.70711 20.2929C7.51957 20.1054 7.26522 20 7 20Z" fill="#3561B6"/>
</svg>
