<svg width="124" height="142" viewBox="0 0 124 142" fill="none" xmlns="http://www.w3.org/2000/svg">
<path d="M6.51105 141.191C5.45055 141.191 4.39005 140.916 3.44005 140.367C1.54205 139.27 0.373047 137.245 0.373047 135.053V6.94751C0.373047 4.75551 1.54205 2.72951 3.44005 1.63301C5.33805 0.536506 7.67655 0.535008 9.57654 1.62951L65.109 33.6345L120.565 65.731C122.462 66.829 123.63 68.855 123.628 71.047C123.627 73.239 122.457 75.264 120.559 76.3595L65.1125 108.365L9.57654 140.372C8.62705 140.918 7.56855 141.191 6.51105 141.191ZM12.649 17.5695V124.43L58.978 97.729L105.223 71.035L58.9685 44.264L12.649 17.5695Z" fill="white"/>
</svg>
