<svg width="24" height="24" viewBox="0 0 24 24" fill="none" xmlns="http://www.w3.org/2000/svg">
<path d="M12.5115 14.7555C12.519 14.7465 12.522 14.7345 12.5295 14.7255L17.766 8.94C18.0585 8.6145 18.0585 8.0865 17.766 7.761C17.763 7.758 17.76 7.7565 17.757 7.755C17.6919 7.67618 17.6104 7.61253 17.5182 7.56848C17.426 7.52444 17.3252 7.50107 17.223 7.5H6.74851C6.64443 7.50168 6.54198 7.5262 6.44842 7.57181C6.35485 7.61743 6.27244 7.68304 6.20701 7.764L6.20401 7.761C6.06245 7.92478 5.98456 8.13403 5.98456 8.3505C5.98456 8.56697 6.06245 8.77622 6.20401 8.94L11.4525 14.7555C11.5178 14.8321 11.599 14.8936 11.6904 14.9358C11.7819 14.9779 11.8813 14.9998 11.982 14.9998C12.0827 14.9998 12.1822 14.9779 12.2736 14.9358C12.365 14.8936 12.4462 14.8321 12.5115 14.7555Z" fill="#3561B6"/>
</svg>
