<svg width="32" height="32" viewBox="0 0 32 32" fill="none" xmlns="http://www.w3.org/2000/svg">
<path d="M27.8933 20.8267C27.8258 20.6651 27.7311 20.5163 27.6133 20.3867L23.6133 16.3867C23.3623 16.1356 23.0217 15.9946 22.6667 15.9946C22.3116 15.9946 21.9711 16.1356 21.72 16.3867C21.4689 16.6378 21.3279 16.9783 21.3279 17.3334C21.3279 17.6884 21.4689 18.0289 21.72 18.28L23.4533 20H16C15.6464 20 15.3072 20.1405 15.0572 20.3905C14.8071 20.6406 14.6667 20.9797 14.6667 21.3334C14.6667 21.687 14.8071 22.0261 15.0572 22.2762C15.3072 22.5262 15.6464 22.6667 16 22.6667H23.4533L21.72 24.3867C21.595 24.5106 21.4958 24.6581 21.4281 24.8206C21.3605 24.9831 21.3256 25.1573 21.3256 25.3334C21.3256 25.5094 21.3605 25.6836 21.4281 25.8461C21.4958 26.0086 21.595 26.1561 21.72 26.28C21.844 26.405 21.9914 26.5042 22.1539 26.5719C22.3164 26.6396 22.4907 26.6744 22.6667 26.6744C22.8427 26.6744 23.017 26.6396 23.1794 26.5719C23.3419 26.5042 23.4894 26.405 23.6133 26.28L27.6133 22.28C27.7368 22.1549 27.8322 22.0049 27.8933 21.84C28.0267 21.5154 28.0267 21.1513 27.8933 20.8267ZM18.6667 26.6667H8C7.64638 26.6667 7.30724 26.5262 7.05719 26.2762C6.80714 26.0261 6.66667 25.687 6.66667 25.3334V6.66669C6.66667 6.31306 6.80714 5.97393 7.05719 5.72388C7.30724 5.47383 7.64638 5.33335 8 5.33335H14.6667V9.33335C14.6667 10.3942 15.0881 11.4116 15.8382 12.1618C16.5884 12.9119 17.6058 13.3334 18.6667 13.3334H24C24.2632 13.332 24.5202 13.2528 24.7385 13.1057C24.9568 12.9586 25.1266 12.7502 25.2267 12.5067C25.3288 12.2639 25.3567 11.9963 25.3068 11.7376C25.257 11.4789 25.1317 11.2409 24.9467 11.0534L16.9467 3.05335C16.8364 2.94964 16.7104 2.86413 16.5733 2.80002H16.4533L16.08 2.66669H8C6.93913 2.66669 5.92172 3.08811 5.17157 3.83826C4.42143 4.58841 4 5.60582 4 6.66669V25.3334C4 26.3942 4.42143 27.4116 5.17157 28.1618C5.92172 28.9119 6.93913 29.3334 8 29.3334H18.6667C19.0203 29.3334 19.3594 29.1929 19.6095 28.9428C19.8595 28.6928 20 28.3536 20 28C20 27.6464 19.8595 27.3073 19.6095 27.0572C19.3594 26.8072 19.0203 26.6667 18.6667 26.6667ZM17.3333 7.21335L20.7867 10.6667H18.6667C18.313 10.6667 17.9739 10.5262 17.7239 10.2762C17.4738 10.0261 17.3333 9.68698 17.3333 9.33335V7.21335Z" fill="#35B678"/>
</svg>
