<?xml version="1.0" encoding="utf-8"?>
<!-- Generator: Adobe Illustrator 25.4.1, SVG Export Plug-In . SVG Version: 6.00 Build 0)  -->
<svg version="1.1" id="Слой_1" xmlns="http://www.w3.org/2000/svg" xmlns:xlink="http://www.w3.org/1999/xlink" x="0px" y="0px"
	 viewBox="0 0 20 20" style="enable-background:new 0 0 20 20;" xml:space="preserve">
<style type="text/css">
	.st0{fill:#3561B6;}
</style>
<path class="st0" d="M10,0C4.5,0,0,4.5,0,10c0,5.5,4.5,10,10,10s10-4.5,10-10C20,4.5,15.5,0,10,0z M11.6,14.2c0,0-0.9,0.8-2.1,0.8
	c-0.2,0-0.4,0-0.6-0.1c-0.6-0.1-1-0.5-1.3-0.9c-0.3-0.6-0.2-1.4,0.2-2.2l0.7-1.3c0.4-0.7,0.1-0.9,0-0.9c0,0-0.1-0.1-0.3-0.1
	c-0.3,0-0.7,0.1-0.7,0.1c-0.1,0-0.2,0-0.2,0C7.1,9.6,7.1,9.6,7,9.5S7,9.4,7,9.3c0-0.1,0.1-0.1,0.1-0.2c0,0,0.9-0.8,2.1-0.8
	c0.2,0,0.4,0,0.6,0.1c0.6,0.1,1,0.5,1.3,0.9c0.3,0.6,0.2,1.4-0.2,2.1l-0.7,1.3c-0.4,0.7-0.1,0.9,0,0.9c0,0,0.1,0.1,0.3,0.1
	c0.3,0,0.7-0.1,0.7-0.1c0.1,0,0.2,0,0.2,0s0.1,0.1,0.2,0.1c0,0.1,0.1,0.1,0,0.2S11.6,14.2,11.6,14.2z M10.7,7.7C9.7,7.7,9,6.9,9,6
	c0-0.9,0.7-1.7,1.7-1.7c0.9,0,1.7,0.7,1.7,1.7C12.3,6.9,11.6,7.7,10.7,7.7z"/>
</svg>
