<svg width="32" height="32" viewBox="0 0 32 32" fill="none" xmlns="http://www.w3.org/2000/svg">
<path d="M27.8667 15.4667C27.7333 15.3334 27.7333 15.2 27.6 15.0667L23.6 11.0667C23.0667 10.5334 22.2667 10.5334 21.7333 11.0667C21.2 11.6 21.2 12.4 21.7333 12.9334L23.4667 14.6667H17.3333C16.5333 14.6667 16 15.2 16 16C16 16.8 16.5333 17.3334 17.3333 17.3334H23.4667L21.7333 19.0667C21.2 19.6 21.2 20.4 21.7333 20.9334C22 21.2 22.4 21.3334 22.6667 21.3334C22.9333 21.3334 23.3333 21.2 23.6 20.9334L27.6 16.9334C27.7333 16.8 27.8667 16.6667 27.8667 16.5334C28 16.1334 28 15.8667 27.8667 15.4667Z" fill="#3561B6"/>
<path d="M20.6667 24.1333C19.2 24.9333 17.6 25.3333 16 25.3333C10.8 25.3333 6.66667 21.2 6.66667 16C6.66667 10.8 10.8 6.66667 16 6.66667C17.6 6.66667 19.2 7.06667 20.6667 7.86667C21.3333 8.26667 22.1333 8 22.5333 7.33333C22.9333 6.66667 22.6667 5.86667 22 5.46667C20.1333 4.53333 18.1333 4 16 4C9.33333 4 4 9.33333 4 16C4 22.6667 9.33333 28 16 28C18.1333 28 20.1333 27.4667 22 26.4C22.6667 26 22.8 25.2 22.5333 24.5333C22.1333 24 21.3333 23.7333 20.6667 24.1333Z" fill="#3561B6"/>
</svg>
