<svg width="20" height="20" viewBox="0 0 20 20" fill="none" xmlns="http://www.w3.org/2000/svg">
<path d="M13.3333 5.55554H17.2221V6.11109H13.3333V5.55554Z" fill="#444444"/>
<path d="M13.3333 7.22223H17.2221V7.77778H13.3333V7.22223Z" fill="#444444"/>
<path d="M13.3333 8.88889H17.2221V9.44443H13.3333V8.88889Z" fill="#444444"/>
<path d="M13.3333 10.5555H17.2221V11.1111H13.3333V10.5555Z" fill="#444444"/>
<path d="M13.3333 12.2222H17.2221V12.7778H13.3333V12.2222Z" fill="#444444"/>
<path d="M13.3333 13.8889H17.2221V14.4444H13.3333V13.8889Z" fill="#444444"/>
<path d="M13.3333 2.22223V3.33334H18.8888V16.6667H13.3333V17.7778H19.9999V2.22225L13.3333 2.22223Z" fill="#444444"/>
<path d="M6.16394 9.96933C6.07929 10.1288 5.99032 10.2932 5.89511 10.4647C5.72476 10.7715 5.50366 11.2095 5.25952 11.7084C5.71825 11.5524 6.29874 11.3742 6.7553 11.2966C6.91562 11.2693 7.09927 11.2321 7.29024 11.1911C6.78677 10.7856 6.46261 10.3814 6.16394 9.96933Z" fill="#B81806"/>
<path d="M0 3.33335V16.6667L13.3333 20V3.05176e-05L0 3.33337V3.33335ZM11.84 11.6472C11.6547 11.5186 11.3384 11.447 10.8146 11.4152C10.8013 11.4144 10.7842 11.4141 10.7642 11.4141C10.5596 11.4141 10.0597 11.4481 9.68207 11.4792C9.6601 11.4811 9.63676 11.4839 9.61451 11.4855C9.82068 11.575 10.0125 11.6477 10.1801 11.7101L10.2129 11.7221C10.8922 11.9751 11.2679 11.9998 11.4694 12.0134L11.4979 12.0148C11.6984 12.0148 11.8465 11.9372 11.8479 11.9367L11.8961 11.9109L11.933 11.9513C11.942 11.9608 12.1533 12.1941 12.1194 12.4309C12.1034 12.5443 12.0366 12.6371 11.9214 12.707C11.7751 12.7955 11.5573 12.8399 11.2744 12.8399C10.8518 12.8399 10.3089 12.733 9.85836 12.5614C9.08986 12.2684 8.49713 11.9814 8.02213 11.6974C7.46629 11.7755 6.92594 11.8661 6.48432 11.9567C5.93393 12.0687 5.48715 12.1908 5.40275 12.2141C5.24758 12.2564 5.0927 12.3031 4.94973 12.3481C4.78643 12.6872 4.61879 13.0383 4.4525 13.3874C4.32283 13.6594 4.19344 13.9307 4.06811 14.1922C3.67016 15.0226 2.99713 15.5184 2.26744 15.5184C1.96252 15.5184 1.66117 15.4292 1.39559 15.2608C1.27461 15.184 0.976484 14.25 1.08934 14.0422C1.09395 14.0333 1.09855 14.0156 1.10613 13.9907C1.16555 13.7986 1.32342 13.2881 1.84725 12.8327C2.36402 12.3859 3.1602 12.011 3.19436 11.995L3.28252 11.954L3.29391 12.0509L3.33268 12.3796L3.33945 12.4355L3.28602 12.4542C3.27951 12.4567 2.60023 12.6989 2.19471 13.2059C2.00537 13.443 1.72432 14.0691 1.74604 14.2587C1.76557 14.4291 1.84775 14.5156 1.99018 14.5156C2.16189 14.5156 2.40143 14.3952 2.66482 14.1765C2.82648 14.0412 4.23303 11.6453 5.64172 9.19905C4.72482 7.70519 4.35672 6.07378 4.76877 5.17128C4.9527 4.76792 5.28201 4.53273 5.72037 4.49015C5.78004 4.48417 5.84867 4.48148 5.92328 4.48148C6.47098 4.48148 7.33932 4.63609 7.48658 5.06089C7.55818 5.26706 7.41252 5.92269 7.39516 5.99675L7.38076 6.06023L7.21449 6.03636L7.19686 6.01331C7.19686 6.01331 6.8583 5.56489 6.72106 5.38831C6.67631 5.33081 6.5816 5.292 6.48479 5.292C6.39906 5.29228 6.19045 5.32429 6.10012 5.62077C5.96123 6.07405 6.01006 6.54417 6.01006 6.54472C6.01143 6.55314 6.12725 7.22368 6.36353 7.94011C6.65326 7.43366 6.93348 6.94183 7.19254 6.48558L7.22266 6.43214L7.2799 6.45519L7.55496 6.56642L7.54574 6.62232C7.53924 6.66109 7.41201 7.37509 6.73113 8.83423C7.05502 9.47253 7.43344 9.96026 7.43914 9.96732C7.44104 9.97003 7.64611 10.2481 8.00557 10.5413C8.15664 10.6636 8.33896 10.7855 8.53699 10.9065C9.0223 10.7934 9.46094 10.6935 9.69285 10.6672C10.0702 10.6235 10.4806 10.6081 10.7386 10.6081C10.8726 10.6081 10.9787 10.6121 11.0451 10.6194C11.1973 10.6354 11.3199 10.7608 11.4392 10.8815C11.5173 10.9615 11.5987 11.0442 11.6663 11.0649C11.8562 11.1238 11.9954 11.21 12.0808 11.3213C12.1234 11.3782 12.1741 11.5109 12.1755 11.5969C12.1768 11.7298 12.122 11.8459 12.1193 11.8505L12.0949 11.9012L12.0401 11.8885L11.9853 11.8754L11.9297 11.8613L11.9313 11.8041C11.9314 11.8002 11.9328 11.712 11.84 11.6472V11.6472Z" fill="#B81806"/>
</svg>
