<?xml version="1.0" encoding="utf-8"?>
<!-- Generator: Adobe Illustrator 25.4.1, SVG Export Plug-In . SVG Version: 6.00 Build 0)  -->
<svg version="1.1" id="Слой_1" xmlns="http://www.w3.org/2000/svg" xmlns:xlink="http://www.w3.org/1999/xlink" x="0px" y="0px"
	 viewBox="0 0 100 100.1" enable-background="new 0 0 100 100.1" xml:space="preserve">
<path fill-rule="evenodd" clip-rule="evenodd" fill="#3561B6" d="M23.6,78.5H48V49h2v30.5c0,0.3-0.1,0.5-0.3,0.7
	c-0.2,0.2-0.4,0.3-0.7,0.3H22.6c-0.3,0-0.5-0.1-0.7-0.3c-0.2-0.2-0.3-0.4-0.3-0.7V52.1h2V78.5z M21.6,41.9v-3c0-0.3,0.1-0.5,0.3-0.7
	c0.2-0.2,0.4-0.3,0.7-0.3h21.3v2H23.6v2H21.6z"/>
<path fill="#79A1D5" d="M19.8,48.3c-0.1,0.1-0.2,0.3-0.3,0.5s0,0.4,0.1,0.6c0.1,0.2,0.2,0.3,0.4,0.5c0.2,0.1,0.4,0.2,0.6,0.2h5.1v-2
	H23l2.3-2.3c0.1-0.1,0.2-0.3,0.3-0.5c0-0.2,0-0.4-0.1-0.6c-0.1-0.2-0.2-0.3-0.4-0.5c-0.2-0.1-0.4-0.2-0.6-0.2h-5.1v2h2.6L19.8,48.3z
	"/>
<path fill-rule="evenodd" clip-rule="evenodd" fill="#3561B6" d="M35.7,51.2c-0.5,0.3-1.6,0.5-2.1,0.5c-0.4,0-0.2-0.1-0.5-0.2
	c-0.3-0.1-0.7-0.4-0.9-0.6c-0.3-0.3-0.5-0.6-0.6-0.9c-0.1-0.3-0.2-0.7-0.2-1.1c0-0.6,0.2-1.1,0.5-1.6c0.3-0.5,0.8-0.8,1.3-1
	c0.5-0.2,1.1-0.3,1.6-0.2c0.6,0.1,1.1,0.4,1.5,0.8c0.4,0.4,0.7,0.9,0.8,1.5c0.1,0.6,0.1,1.1-0.2,1.6C36.5,50.4,36.2,50.9,35.7,51.2z
	 M54.1,19.6h24.4c0.5,0,1.1,0.2,1.4,0.6s0.6,0.9,0.6,1.4V45c0,0.5-0.2,1.1-0.6,1.4C79.5,46.8,79,47,78.4,47H54.1
	c-0.5,0-1.1-0.2-1.4-0.6C52.2,46,52,45.5,52,45v-3H47l4.2-3.4l0.8-0.7V21.6c0-0.5,0.2-1.1,0.6-1.4C53,19.8,53.5,19.6,54.1,19.6z
	 M59.4,30.7h1.5c0.3,0,0.6,0.1,0.8,0.3c0.2,0.2,0.4,0.5,0.4,0.8c0,0.3-0.2,0.6-0.4,0.8c-0.2,0.2-0.5,0.3-0.8,0.3h-1.5
	c-0.3,0-0.6-0.1-0.8-0.3c-0.2-0.2-0.4-0.5-0.4-0.8h-2c0,0.8,0.4,1.6,0.9,2.1c0.6,0.6,1.3,0.9,2.1,0.9v1h2v-1c0.8,0,1.6-0.4,2.1-0.9
	c0.6-0.6,0.9-1.3,0.9-2.1c0-0.8-0.4-1.6-1-2.2s-1.4-0.9-2.3-0.8h-1.5c-0.3,0-0.6-0.1-0.8-0.3c-0.2-0.2-0.4-0.5-0.4-0.8
	c0-0.3,0.2-0.6,0.4-0.8c0.2-0.2,0.5-0.3,0.8-0.3h1.5c0.3,0,0.6,0.1,0.8,0.3c0.2,0.2,0.4,0.5,0.4,0.8h2c0-0.8-0.4-1.6-0.9-2.1
	c-0.6-0.6-1.3-0.9-2.1-0.9v-1h-2v1c-0.8,0-1.6,0.4-2.1,0.9c-0.6,0.6-0.9,1.3-0.9,2.1c0,0.8,0.4,1.6,1,2.2S58.6,30.8,59.4,30.7z
	 M73.4,27.1l1.3,1.3l1.4-1.4l-3-3c-0.2-0.2-0.4-0.3-0.7-0.3c-0.3,0-0.5,0.1-0.7,0.3l-3,3l1.4,1.4l1.3-1.3v2.6c0,3-1.2,5.8-3.3,7.9
	c-2.1,2.1-4.9,3.3-7.9,3.3h-4.1v2h4.1c3.5,0,6.9-1.4,9.3-3.9c2.5-2.5,3.9-5.8,3.9-9.3V27.1z"/>
<path fill="#B4CBEA" d="M29,55.1l0,9.1c0,0.4,0.1,0.9,0.3,1.3c0.2,0.4,0.4,0.8,0.7,1.1c0.3,0.3,0.7,0.6,1.1,0.7
	c0.4,0.2,0.9,0.3,1.3,0.3h4.5l0.6,6.8h2.8l0-8v-1.1c0-0.6-0.2-1.2-0.7-1.6c-0.4-0.4-1-0.7-1.6-0.7h-2.3l0-6.8l5.7-4.5L40.9,46h-2.8
	v4.5l-2.3,1.1h-2.2h-1.1c-0.9,0-1.8,0.4-2.4,1C29.4,53.3,29,54.2,29,55.1z"/>
</svg>
