<?xml version="1.0" encoding="utf-8"?>
<!-- Generator: Adobe Illustrator 25.4.1, SVG Export Plug-In . SVG Version: 6.00 Build 0)  -->
<svg version="1.1" id="Слой_1" xmlns="http://www.w3.org/2000/svg" xmlns:xlink="http://www.w3.org/1999/xlink" x="0px" y="0px"
	 viewBox="0 0 100 100.1" enable-background="new 0 0 100 100.1" xml:space="preserve">
<g>
	<defs>
		<rect id="SVGID_1_" x="18" y="17.5" width="65" height="65"/>
	</defs>
	<clipPath id="SVGID_00000175315661425569552140000009799671751377063578_">
		<use xlink:href="#SVGID_1_"  overflow="visible"/>
	</clipPath>
	<g clip-path="url(#SVGID_00000175315661425569552140000009799671751377063578_)">
		<path fill-rule="evenodd" clip-rule="evenodd" fill="#B4CBEA" d="M29.2,47.6c-0.3-0.8-1-1.4-1.8-1.6L27,45.9v-0.6
			c0-0.3-0.2-0.5-0.5-0.5c-0.3,0-0.5,0.2-0.5,0.5v0.6L25.7,46c-1.1,0.3-1.9,1.2-1.8,2.3c0.1,1.4,1.3,2,2.6,2.2
			c0.8,0.1,1.9,0.4,2,1.3c0,0.3,0,0.5-0.2,0.7l0,0l0,0c-0.4,0.4-1.1,0.6-1.6,0.6c-0.9,0-1.8-0.4-2-1.3c-0.1-0.3-0.3-0.4-0.6-0.4
			c-0.3,0.1-0.4,0.3-0.4,0.6c0.3,1,1,1.7,2,1.9l0.4,0.1v0.6c0,0.3,0.2,0.5,0.5,0.5c0.3,0,0.5-0.2,0.5-0.5v-0.6l0.4-0.1
			c0.6-0.1,1.2-0.4,1.5-0.9c0.4-0.4,0.5-1,0.5-1.5c-0.2-1.5-1.5-2-2.8-2.2c-0.7-0.1-1.7-0.4-1.7-1.3c0-0.7,0.5-1.2,1.2-1.3
			c0.9-0.2,1.8,0.2,2.2,1c0.1,0.3,0.4,0.4,0.7,0.3C29.2,48.1,29.3,47.8,29.2,47.6z M50.5,37.8c2.3,0,3.4,1.4,3.4,3.6
			c0,1-0.3,2.1-0.8,3c-0.5,0.8-1.2,1.4-2.2,1.6c-0.1,0-0.3,0-0.5,0c-0.2,0-0.3,0-0.5,0c-0.9-0.2-1.7-0.8-2.2-1.6
			c-0.6-0.9-0.8-2-0.8-3C47.1,39.1,48.2,37.8,50.5,37.8z M33.5,50c0,3.9-3.1,7-7,7c-3.9,0-7-3.1-7-7s3.1-7,7-7
			C30.4,43,33.5,46.2,33.5,50z"/>
		<path fill-rule="evenodd" clip-rule="evenodd" fill="#3561B6" d="M58.4,51.4c0-1.6-1.9-2.3-3-2.6c-3.3-0.8-6.6-0.8-9.7,0
			c-1.4,0.4-3,1.1-3,2.6V62c0,1.1,0.7,2,1.7,2.4v-9.4c0-0.6,0.5-1,1-1c0.6,0,1,0.5,1,1v25.6h3.2V69.6c0-0.6,0.5-1,1-1
			c0.6,0,1,0.5,1,1v10.9h2.9V54.9c0-0.6,0.5-1,1-1c0.6,0,1,0.5,1,1v9.4c1-0.4,1.7-1.3,1.7-2.4L58.4,51.4L58.4,51.4z M47.6,41.4
			c0,2.3,1.3,4.2,2.9,4.2c1.6,0,2.9-1.9,2.9-4.2c0-2.6-1.6-3.1-2.9-3.1S47.6,38.8,47.6,41.4z M60.4,51.4V62c0,2.2-1.6,4.1-3.8,4.5
			v15.1c0,0.6-0.5,1-1,1H45.4c-0.3,0-0.5-0.1-0.7-0.3c-0.2-0.2-0.3-0.4-0.3-0.7V66.5c-2.1-0.5-3.8-2.3-3.8-4.5V51.4
			c0-2.2,1.6-3.8,4.5-4.6c0.8-0.2,1.6-0.4,2.4-0.5c-1.2-1.1-2-2.9-2-5c0-2.1,0.8-3.2,1.5-3.9c0.9-0.8,2.1-1.3,3.5-1.3
			c1.4,0,2.6,0.4,3.5,1.3c0.7,0.6,1.5,1.8,1.5,3.9c0,2.1-0.8,3.9-2,5c0.8,0.1,1.6,0.3,2.4,0.5C58.7,47.5,60.4,49.2,60.4,51.4z
			 M50.7,25c-1.3-0.2-1.3-0.6-1.3-0.8c0-0.6,0.6-0.8,0.8-0.8c0.4-0.1,1.3-0.1,1.6,0.7c0.2,0.5,0.8,0.8,1.3,0.5
			c0.5-0.2,0.8-0.8,0.5-1.3c-0.4-1-1.3-1.6-2.1-1.9v-0.2c0-0.6-0.5-1-1-1c-0.6,0-1,0.5-1,1v0.2c-1.4,0.4-2.2,1.5-2.2,2.8
			c0,0.8,0.5,2.3,3,2.7c1.5,0.2,1.5,0.7,1.6,0.9c0,0.2,0,0.3-0.1,0.4c-0.2,0.2-0.7,0.4-1.2,0.4c-0.6,0-1.3-0.2-1.5-0.9
			c-0.1-0.5-0.7-0.9-1.2-0.7c-0.5,0.1-0.9,0.7-0.7,1.2c0.3,1.2,1.2,2,2.4,2.3v0.2c0,0.6,0.5,1,1,1c0.6,0,1-0.5,1-1v-0.2
			c0.7-0.2,1.4-0.5,1.8-1c0.5-0.5,0.7-1.2,0.6-1.9C53.7,26.3,52.6,25.4,50.7,25z M25.5,45.3v0.2c-1.4,0.4-2.2,1.5-2.2,2.8
			c0,0.8,0.5,2.3,3,2.7c1.5,0.2,1.5,0.7,1.6,0.9c0,0.2,0,0.3-0.1,0.4c-0.2,0.2-0.7,0.4-1.2,0.4c-0.6,0-1.3-0.2-1.5-0.9
			c-0.1-0.5-0.7-0.9-1.2-0.7c-0.5,0.1-0.9,0.7-0.7,1.2c0.3,1.2,1.2,2,2.4,2.3v0.2c0,0.6,0.5,1,1,1c0.6,0,1-0.5,1-1v-0.2
			c0.7-0.2,1.4-0.5,1.8-1c0.5-0.5,0.7-1.2,0.6-1.9c-0.2-1.4-1.3-2.3-3.2-2.7c-1.3-0.2-1.3-0.6-1.3-0.8c0-0.6,0.6-0.8,0.8-0.8
			c0.4-0.1,1.3-0.1,1.6,0.7c0.2,0.5,0.8,0.8,1.3,0.5c0.5-0.2,0.8-0.8,0.5-1.3c-0.4-1.1-1.3-1.6-2.1-1.9v-0.2c0-0.6-0.5-1-1-1
			C26,44.3,25.5,44.7,25.5,45.3z M81,50c0-3.6-2.9-6.5-6.5-6.5S68,46.5,68,50c0,3.6,2.9,6.5,6.5,6.5C78.1,56.5,81,53.6,81,50z
			 M57,26.1c0,3.6-2.9,6.5-6.5,6.5c-3.6,0-6.5-2.9-6.5-6.5c0-3.6,2.9-6.5,6.5-6.5C54.1,19.6,57,22.5,57,26.1z M26.5,43.5
			c3.6,0,6.5,2.9,6.5,6.5c0,3.6-2.9,6.5-6.5,6.5C23,56.5,20,53.6,20,50C20,46.5,23,43.5,26.5,43.5z M83,50c0,4.7-3.8,8.5-8.5,8.5
			c-0.2,0-0.3,0-0.5,0c-1.9,5.1-5.4,9.6-10,12.5c-0.2,0.1-0.4,0.2-0.6,0.2c-0.3,0-0.7-0.2-0.9-0.5c-0.3-0.5-0.2-1.1,0.3-1.4
			c4.1-2.7,7.3-6.6,9.1-11.2c-3.5-1.1-6-4.3-6-8.2c0-3.8,2.5-7.1,6-8.2c-2.3-6.1-7.2-11-13.3-13.3c-1.1,3.5-4.3,6-8.2,6
			c-3.8,0-7.1-2.5-8.2-6c-6.1,2.3-11,7.2-13.3,13.3c3.5,1.1,6,4.3,6,8.2c0,3.8-2.5,7.1-6,8.2c1.7,4.6,4.9,8.5,9.1,11.2
			c0.5,0.3,0.6,0.9,0.3,1.4c-0.2,0.3-0.5,0.5-0.9,0.5c-0.2,0-0.4-0.1-0.5-0.2c-4.6-3-8.1-7.4-10-12.5c-0.2,0-0.3,0-0.5,0
			c-4.7,0-8.5-3.8-8.5-8.5c0-4.7,3.8-8.5,8.5-8.5c0.2,0,0.3,0,0.5,0c2.5-6.9,8-12.5,15-15c0-0.2,0-0.3,0-0.5c0-4.7,3.8-8.5,8.5-8.5
			c4.7,0,8.5,3.8,8.5,8.5c0,0.2,0,0.3,0,0.5c6.9,2.5,12.5,8,15,15c0.2,0,0.3,0,0.5,0C79.2,41.5,83,45.3,83,50z M77.9,51.7
			c0.1,0.7-0.1,1.4-0.6,1.9c-0.4,0.5-1.1,0.8-1.8,1v0.2c0,0.6-0.5,1-1,1c-0.6,0-1-0.5-1-1v-0.2c-1.2-0.3-2.1-1.2-2.4-2.3
			c-0.1-0.5,0.2-1.1,0.7-1.2c0.5-0.1,1.1,0.2,1.2,0.7c0.2,0.7,0.9,0.9,1.5,0.9c0.5,0,1-0.2,1.2-0.4c0.1-0.1,0.1-0.2,0.1-0.4
			c0-0.2-0.1-0.7-1.5-0.9c-2.5-0.4-3-1.9-3-2.7c-0.1-1.3,0.8-2.4,2.2-2.8v-0.2c0-0.6,0.4-1,1-1c0.6,0,1,0.5,1,1v0.2
			c0.9,0.2,1.7,0.8,2.1,1.9c0.2,0.5,0,1.1-0.5,1.3c-0.5,0.2-1.1,0-1.3-0.5c-0.3-0.8-1.2-0.8-1.6-0.7c-0.2,0-0.8,0.2-0.8,0.8
			c0,0.1,0,0.6,1.3,0.8C76.6,49.3,77.7,50.2,77.9,51.7z"/>
	</g>
</g>
</svg>
