<?xml version="1.0" encoding="utf-8"?>
<!-- Generator: Adobe Illustrator 25.4.1, SVG Export Plug-In . SVG Version: 6.00 Build 0)  -->
<svg version="1.1" id="Слой_1" xmlns="http://www.w3.org/2000/svg" xmlns:xlink="http://www.w3.org/1999/xlink" x="0px" y="0px"
	 viewBox="0 0 100 100.1" enable-background="new 0 0 100 100.1" xml:space="preserve">
<path fill="#B4CBEA" d="M44.2,37.1h-6.5v2.6h6.5V37.1z"/>
<path fill="#79A1D5" d="M44.2,39.7h-6.5l6.5-2.6V39.7z"/>
<path fill="#B4CBEA" d="M61,37.1h-6.5v2.6H61V37.1z"/>
<path fill="#79A1D5" d="M61,39.7h-6.5l6.5-2.6V39.7z"/>
<path fill="#DBE7F6" d="M19.1,43.4L16.7,43l-0.9,5.2h10.3L26,44.5L19.1,43.4z"/>
<path fill="#B4CBEA" d="M15.8,48.1h10.3L26,44.5L15.8,48.1z"/>
<path fill="#DBE7F6" d="M15.8,61l0.9,5.2l9.2-1.7V61H15.8z"/>
<path fill="#B4CBEA" d="M16.7,66.2l9.2-1.7V61L16.7,66.2z"/>
<path fill="#DBE7F6" d="M26.1,48.1H13.1V61h12.9"/>
<path fill="#B4CBEA" d="M26.1,48.1L13.1,61h12.9"/>
<path fill="#DBE7F6" d="M71.4,72H28.6c-1.4,0-2.6-1.2-2.6-2.6V42.3c0-1.4,1.2-2.6,2.6-2.6h42.7c1.4,0,2.6,1.2,2.6,2.6v27.2
	C73.9,70.9,72.8,72,71.4,72z"/>
<path fill="#B4CBEA" d="M73,40.3L27,71.4c0.4,0.4,1,0.7,1.7,0.7h42.7c1.4,0,2.6-1.2,2.6-2.6V42.3C73.9,41.5,73.6,40.8,73,40.3z"/>
<path fill="#F4F8F8" d="M63.6,44.9H36.5c0,2.9-2.3,5.1-5.1,5.1h-0.1v11.7h0.1c2.9,0,5.1,2.3,5.1,5.1h27.1c0-2.9,2.3-5.1,5.1-5.1V50
	C65.9,50,63.6,47.7,63.6,44.9z"/>
<path fill="#DBE7F6" d="M36.5,66.8h27.1c0-2.9,2.3-5.1,5.1-5.1V50c-2.3,0-4.2-1.5-4.9-3.6L36.3,65.2C36.4,65.7,36.5,66.2,36.5,66.8z
	"/>
<path fill="#DBE7F6" d="M50,61c2.9,0,5.1-2.3,5.1-5.1c0-2.9-2.3-5.1-5.1-5.1c-2.9,0-5.1,2.3-5.1,5.1C44.8,58.7,47.1,61,50,61z"/>
<path fill="#B4CBEA" d="M50,61c2.9,0,5.1-2.3,5.1-5.1c0-1.1-0.3-2.1-0.9-2.9l-8.6,5.8C46.6,60.1,48.2,61,50,61z"/>
<path fill="#B4CBEA" d="M73.9,61h12.9V48.1H73.9"/>
<path fill="#79A1D5" d="M82.5,55.8c0.7,0,1.3-0.6,1.3-1.3c0-0.7-0.6-1.3-1.3-1.3c-0.7,0-1.3,0.6-1.3,1.3
	C81.1,55.2,81.7,55.8,82.5,55.8z"/>
<path fill="#79A1D5" d="M17.5,55.9c0.7,0,1.3-0.6,1.3-1.3c0-0.7-0.6-1.3-1.3-1.3s-1.3,0.6-1.3,1.3C16.3,55.3,16.9,55.9,17.5,55.9z"
	/>
<path fill="#79A1D5" d="M84.4,61c-0.1-0.2-0.1-0.4-0.1-0.7c0-1.1,0.9-1.9,1.9-1.9c0.2,0,0.4,0.1,0.7,0.1V61H84.4z M86.9,50.6
	c-0.2,0.1-0.4,0.1-0.7,0.1c-1.1,0-1.9-0.8-1.9-1.9c0-0.2,0.1-0.4,0.1-0.7h2.5C86.9,48.1,86.9,50.6,86.9,50.6z"/>
<path fill="#B4CBEA" d="M84.3,48.1l-0.5-2.7L83.4,43l-2.5,0.4l-7,1.2v3.5H84.3z"/>
<path fill="#B4CBEA" d="M84.3,61H73.9v3.5l9.4,1.7l0.4-2.4L84.3,61z"/>
<path fill="#79A1D5" d="M83.8,45.4c-0.2,0.1-0.4,0.2-0.6,0.2c-1.1,0.2-2.1-0.5-2.2-1.6c0-0.2,0-0.4,0-0.7l2.4-0.4L83.8,45.4z
	 M83.8,63.8c-0.2-0.1-0.4-0.2-0.6-0.2c-1.1-0.2-2.1,0.5-2.2,1.6c0,0.2,0,0.4,0,0.7l2.4,0.4L83.8,63.8z"/>
<path fill="#B4CBEA" d="M16.2,63.8c0.2-0.1,0.4-0.2,0.6-0.2c1.1-0.2,2.1,0.5,2.2,1.6c0,0.2,0,0.4,0,0.7l-2.4,0.4L16.2,63.8z
	 M15.6,48.1c0.1,0.2,0.1,0.4,0.1,0.7c0,1.1-0.9,1.9-1.9,1.9c-0.2,0-0.4-0.1-0.7-0.1v-2.5H15.6z M13.1,58.5c0.2-0.1,0.4-0.1,0.7-0.1
	c1.1,0,1.9,0.8,1.9,1.9c0,0.2-0.1,0.4-0.1,0.7h-2.5V58.5z"/>
<path fill="#79A1D5" d="M15.1,59l-2,2h2.5c0.1-0.2,0.1-0.4,0.1-0.7C15.7,59.9,15.5,59.4,15.1,59z M57.1,28.1H41.6
	c-1.4,0-2.6,1.2-2.6,2.6v6.5h3.9V32h12.9v5.1h3.9v-6.5C59.7,29.2,58.5,28.1,57.1,28.1z"/>
<path fill="#3561B6" d="M76.3,55.2h-1.1c-1.1,0-1.9-0.9-1.9-1.9c0-1.1,0.9-1.9,1.9-1.9h2.6c0.3,0,0.7,0.3,0.7,0.7
	c0,0.3-0.2,0.7-0.7,0.7h-2.6c-0.3,0-0.7,0.3-0.7,0.7s0.2,0.7,0.7,0.7h1.1c0.3,0,0.7,0.3,0.7,0.7C77,54.9,76.7,55.2,76.3,55.2z"/>
<path fill="#3561B6" d="M76.5,57.8h-2.6c-0.3,0-0.7-0.2-0.7-0.7c0-0.3,0.3-0.7,0.7-0.7h2.6c0.3,0,0.7-0.2,0.7-0.7
	c0-0.3-0.2-0.7-0.7-0.7h-1.1c-0.3,0-0.7-0.2-0.7-0.7c0-0.3,0.2-0.7,0.7-0.7h1.1c1.1,0,1.9,0.9,1.9,1.9C78.5,57,77.6,57.8,76.5,57.8z
	"/>
<path fill="#3561B6" d="M75.9,59.1c-0.3,0-0.7-0.2-0.7-0.7v-7.8c0-0.3,0.2-0.7,0.7-0.7c0.3,0,0.7,0.3,0.7,0.7v7.8
	C76.5,58.8,76.3,59.1,75.9,59.1z"/>
<path fill="#3561B6" d="M86.9,61.7H73.9c-0.3,0-0.7-0.2-0.7-0.7c0-0.3,0.2-0.7,0.7-0.7h12.3V48.8H73.9c-0.3,0-0.7-0.2-0.7-0.7
	c0-0.3,0.2-0.7,0.7-0.7h12.9c0.3,0,0.7,0.3,0.7,0.7V61C87.5,61.4,87.3,61.7,86.9,61.7z"/>
<path fill="#3561B6" d="M82.5,56.5c-1.1,0-1.9-0.9-1.9-1.9c0-1.1,0.9-1.9,1.9-1.9c1,0,1.9,0.9,1.9,1.9
	C84.4,55.6,83.5,56.5,82.5,56.5z M82.5,53.9c-0.3,0-0.7,0.2-0.7,0.7c0,0.3,0.2,0.7,0.7,0.7c0.3,0,0.7-0.3,0.7-0.7
	C83,54.1,82.8,53.9,82.5,53.9z M86.9,61.7h-2.5c-0.2,0-0.5-0.2-0.6-0.4c-0.1-0.3-0.2-0.6-0.2-0.8c0-1.7,1.7-3.1,3.5-2.4
	c0.2,0.1,0.4,0.3,0.4,0.6v2.5C87.5,61.4,87.3,61.7,86.9,61.7z M84.9,60.4h1.3v-1.2C85.5,59.1,84.9,59.7,84.9,60.4z M86.2,51.3
	c-1.4,0-2.6-1.2-2.6-2.6c0-0.2,0.1-0.6,0.2-0.8c0.1-0.2,0.3-0.4,0.6-0.4h2.5c0.3,0,0.7,0.3,0.7,0.7v2.5c0,0.2-0.2,0.5-0.4,0.6
	C86.8,51.3,86.5,51.3,86.2,51.3z M86.9,50.6L86.9,50.6L86.9,50.6z M84.9,48.8c0,0.7,0.6,1.3,1.3,1.3v-1.3H84.9z"/>
<path fill="#3561B6" d="M84.3,48.8c-0.3,0-0.6-0.2-0.7-0.5l-0.8-4.6L74,45.2c-0.3,0.1-0.7-0.2-0.7-0.5c-0.1-0.3,0.2-0.7,0.5-0.7
	l9.4-1.7c0.2,0,0.3,0,0.5,0.1s0.2,0.2,0.2,0.4l0.9,5.2C84.9,48.4,84.7,48.7,84.3,48.8L84.3,48.8z"/>
<path fill="#3561B6" d="M82.9,46.3c-1.2,0-2.3-0.9-2.6-2.2c-0.1-0.2-0.1-0.6,0-0.9c0.1-0.2,0.2-0.5,0.5-0.5l2.4-0.4
	c0.2,0,0.3,0,0.5,0.1s0.2,0.2,0.2,0.4l0.4,2.4c0.1,0.2-0.1,0.6-0.3,0.7c-0.2,0.2-0.6,0.2-0.8,0.3C83.1,46.3,83,46.3,82.9,46.3z
	 M81.6,43.9c0.2,0.7,0.8,1.2,1.5,1.1l-0.2-1.2L81.6,43.9z M83.4,66.9L83.4,66.9l-9.5-1.7c-0.3-0.1-0.6-0.4-0.5-0.7s0.4-0.6,0.7-0.5
	l8.8,1.6l0.8-4.6c0.1-0.3,0.4-0.6,0.7-0.5s0.6,0.4,0.5,0.7L84,66.5c0,0.2-0.2,0.3-0.2,0.4C83.6,66.8,83.5,66.9,83.4,66.9z"/>
<path fill="#3561B6" d="M83.4,66.9L83.4,66.9l-2.5-0.4c-0.2-0.1-0.5-0.2-0.5-0.5c-0.1-0.3-0.1-0.6,0-0.9c0.2-1.4,1.6-2.3,3-2.1
	c0.2,0.1,0.6,0.2,0.8,0.3c0.2,0.2,0.3,0.4,0.3,0.7l-0.4,2.4c0,0.2-0.2,0.3-0.2,0.4C83.6,66.8,83.5,66.9,83.4,66.9z M81.6,65.2
	l1.2,0.2l0.2-1.2C82.4,64.1,81.7,64.5,81.6,65.2z M24.6,55.2h-1.1c-1.1,0-1.9-0.9-1.9-1.9c0-1.1,0.9-1.9,1.9-1.9h2.6
	c0.3,0,0.7,0.2,0.7,0.7c0,0.3-0.3,0.7-0.7,0.7h-2.6c-0.3,0-0.7,0.2-0.7,0.7c0,0.3,0.3,0.7,0.7,0.7h1.1c0.3,0,0.7,0.2,0.7,0.7
	C25.2,54.9,24.9,55.2,24.6,55.2z"/>
<path fill="#3561B6" d="M24.7,57.8h-2.6c-0.3,0-0.7-0.2-0.7-0.7c0-0.3,0.3-0.7,0.7-0.7h2.6c0.3,0,0.7-0.2,0.7-0.7
	c0-0.3-0.3-0.7-0.7-0.7h-1.1c-0.3,0-0.7-0.2-0.7-0.7c0-0.3,0.3-0.7,0.7-0.7h1.1c1.1,0,1.9,0.9,1.9,1.9C26.7,57,25.8,57.8,24.7,57.8z
	"/>
<path fill="#3561B6" d="M24.2,59.1c-0.3,0-0.7-0.2-0.7-0.7v-7.8c0-0.3,0.3-0.7,0.7-0.7c0.3,0,0.7,0.2,0.7,0.7v7.8
	C24.7,58.8,24.5,59.1,24.2,59.1z"/>
<path fill="#3561B6" d="M26.1,61.7H13.1c-0.3,0-0.7-0.3-0.7-0.7V48.1c0-0.3,0.2-0.7,0.7-0.7h12.9c0.3,0,0.7,0.2,0.7,0.7
	c0,0.3-0.3,0.7-0.7,0.7H13.8v11.7h12.3c0.3,0,0.7,0.2,0.7,0.7C26.7,61.4,26.4,61.7,26.1,61.7z"/>
<path fill="#3561B6" d="M17.5,56.6c-1.1,0-1.9-0.9-1.9-1.9c0-1.1,0.9-1.9,1.9-1.9c1.1,0,1.9,0.9,1.9,1.9
	C19.5,55.6,18.6,56.6,17.5,56.6z M17.5,53.9c-0.3,0-0.7,0.3-0.7,0.7s0.3,0.7,0.7,0.7s0.7-0.2,0.7-0.7C18.2,54.2,18,53.9,17.5,53.9z
	 M13.8,51.3c-0.2,0-0.6-0.1-0.8-0.2c-0.2-0.1-0.4-0.3-0.4-0.6v-2.5c0-0.3,0.2-0.7,0.7-0.7h2.5c0.2,0,0.5,0.2,0.6,0.4
	c0.1,0.3,0.2,0.6,0.2,0.8C16.4,50.2,15.2,51.3,13.8,51.3z M13.8,50c0.7,0,1.3-0.6,1.3-1.3h-1.3V50z M15.6,61.7h-2.5
	c-0.3,0-0.7-0.3-0.7-0.7v-2.5c0-0.2,0.2-0.5,0.4-0.6c1.8-0.7,3.5,0.7,3.5,2.4c0,0.2-0.1,0.6-0.2,0.8C16.1,61.5,15.9,61.7,15.6,61.7z
	 M13.8,60.4h1.3c0-0.7-0.6-1.3-1.3-1.3V60.4z"/>
<path fill="#3561B6" d="M16.7,66.8c-0.3,0-0.6-0.2-0.7-0.5l-0.9-5.2c-0.1-0.3,0.2-0.7,0.5-0.7c0.3-0.1,0.7,0.2,0.7,0.5l0.8,4.6
	l8.6-1.5c0.3-0.1,0.7,0.2,0.7,0.5c0.1,0.3-0.2,0.7-0.5,0.7l-9.2,1.7C16.7,66.8,16.7,66.8,16.7,66.8z"/>
<path fill="#3561B6" d="M16.7,66.8c-0.3,0-0.6-0.2-0.7-0.5l-0.4-2.4c-0.1-0.2,0.1-0.6,0.3-0.7c0.2-0.2,0.6-0.2,0.8-0.3
	c1.4-0.2,2.7,0.7,3,2.1c0.1,0.2,0.1,0.6,0,0.9c-0.1,0.2-0.2,0.5-0.5,0.5l-2.4,0.4C16.7,66.8,16.7,66.8,16.7,66.8z M17,64.2l0.2,1.2
	l1.2-0.2C18.4,64.5,17.7,64.1,17,64.2z M15.8,48.8L15.8,48.8c-0.4-0.1-0.7-0.4-0.6-0.7l0.8-5.2c0.1-0.3,0.4-0.6,0.7-0.5l9.4,1.7
	c0.3,0.1,0.6,0.4,0.5,0.7c-0.1,0.3-0.4,0.6-0.7,0.5l-8.7-1.6l-0.8,4.6C16.4,48.5,16,48.8,15.8,48.8z"/>
<path fill="#B4CBEA" d="M16.2,45.4c0.2,0.1,0.4,0.2,0.6,0.2c1.1,0.2,2.1-0.5,2.2-1.6c0-0.2,0-0.4,0-0.7L16.6,43L16.2,45.4z"/>
<path fill="#3561B6" d="M17.2,46.3c-0.2,0-0.3,0-0.4,0c-0.2-0.1-0.6-0.2-0.8-0.3c-0.2-0.2-0.3-0.4-0.3-0.7l0.4-2.5
	c0.1-0.3,0.4-0.6,0.7-0.5l2.4,0.4c0.2,0.1,0.5,0.2,0.5,0.5c0.1,0.3,0.1,0.6,0,0.9C19.5,45.4,18.4,46.3,17.2,46.3z M17,45
	c0.7,0.1,1.4-0.3,1.5-1.1l-1.2-0.2L17,45z M71.4,72.7H28.6c-1.8,0-3.2-1.5-3.2-3.2V42.3c0-1.8,1.5-3.2,3.2-3.2h42.7
	c1.8,0,3.2,1.5,3.2,3.2v27.2C74.6,71.2,73.1,72.7,71.4,72.7z M28.6,40.3c-1.1,0-1.9,0.9-1.9,1.9v27.2c0,1.1,0.9,1.9,1.9,1.9h42.7
	c1.1,0,1.9-0.9,1.9-1.9V42.3c0-1.1-0.9-1.9-1.9-1.9L28.6,40.3L28.6,40.3z"/>
<path fill="#3561B6" d="M63.6,67.5H36.5c-0.3,0-0.7-0.3-0.7-0.7c0-2.5-2.1-4.6-4.6-4.6c-0.2,0-0.4-0.1-0.5-0.2
	c-0.2-0.1-0.2-0.2-0.2-0.5V50c0-0.2,0.1-0.3,0.2-0.5c0.1-0.1,0.3-0.2,0.5-0.2c0,0,0.1,0,0.2,0c2.5,0,4.5-2.1,4.5-4.6
	c0-0.3,0.2-0.7,0.7-0.7h27.1c0.3,0,0.7,0.3,0.7,0.7c0,2.5,2.1,4.6,4.6,4.6c0.3,0,0.7,0.2,0.7,0.7v11.7c0,0.3-0.2,0.7-0.7,0.7
	c-2.5,0-4.6,2.1-4.6,4.6C64.2,67.2,63.9,67.5,63.6,67.5z M37.2,66.2H63c0.3-2.7,2.5-4.8,5.1-5.1V50.7c-2.7-0.3-4.8-2.5-5.1-5.1H37.2
	c-0.3,2.7-2.5,4.9-5.3,5.1v10.4C34.6,61.3,36.8,63.5,37.2,66.2z"/>
<path fill="#3561B6" d="M50,61.7c-3.2,0-5.8-2.7-5.8-5.8c0-3.2,2.7-5.8,5.8-5.8c3.2,0,5.8,2.7,5.8,5.8C55.8,59,53.2,61.7,50,61.7z
	 M50,51.3c-2.5,0-4.6,2.1-4.6,4.6c0,2.5,2.1,4.6,4.6,4.6c2.5,0,4.6-2.1,4.6-4.6C54.6,53.4,52.5,51.3,50,51.3z M44.2,40.3h-6.5
	c-0.3,0-0.7-0.2-0.7-0.7v-2.6c0-0.3,0.2-0.7,0.7-0.7h6.5c0.3,0,0.7,0.3,0.7,0.7v2.6C44.8,40.1,44.5,40.3,44.2,40.3z M38.3,39.1h5.1
	v-1.3h-5.1V39.1z"/>
<path fill="#3561B6" d="M59.7,37.8c-0.3,0-0.7-0.3-0.7-0.7v-6.5c0-1.1-0.9-1.9-1.9-1.9H41.6c-1.1,0-1.9,0.9-1.9,1.9v6.5
	c0,0.3-0.3,0.7-0.7,0.7s-0.7-0.3-0.7-0.7v-6.5c0-1.8,1.5-3.2,3.2-3.2h15.6c1.8,0,3.2,1.5,3.2,3.2v6.5C60.4,37.4,60,37.8,59.7,37.8z"
	/>
<path fill="#3561B6" d="M55.8,37.8c-0.3,0-0.7-0.2-0.7-0.7v-4.6H43.5v4.6c0,0.3-0.3,0.7-0.7,0.7s-0.7-0.2-0.7-0.7V32
	c0-0.3,0.2-0.7,0.7-0.7h12.9c0.3,0,0.7,0.3,0.7,0.7v5.1C56.5,37.4,56.2,37.8,55.8,37.8z"/>
<path fill="#3561B6" d="M61,40.3h-6.5c-0.3,0-0.7-0.2-0.7-0.7v-2.6c0-0.3,0.2-0.7,0.7-0.7H61c0.3,0,0.7,0.3,0.7,0.7v2.6
	C61.7,40.1,61.3,40.3,61,40.3z M55.1,39.1h5.1v-1.3h-5.1V39.1z M44.2,40.3h-6.5c-0.3,0-0.7-0.2-0.7-0.7v-2.6c0-0.3,0.2-0.7,0.7-0.7
	h6.5c0.3,0,0.7,0.3,0.7,0.7v2.6C44.8,40.1,44.5,40.3,44.2,40.3z M38.3,39.1h5.1v-1.3h-5.1V39.1z"/>
</svg>
